<svg width="86" height="53" viewBox="0 0 86 53" fill="none" xmlns="http://www.w3.org/2000/svg">
<path d="M24.0737 19.4304C23.9777 22.4528 25.4882 23.7912 25.5255 24.6412C25.5078 24.8142 25.4489 24.9804 25.3537 25.126C25.2585 25.2715 25.1298 25.3922 24.9784 25.4778L23.2704 26.6734C23.0494 26.8284 22.7888 26.9172 22.5192 26.9296C22.4618 26.9269 21.4263 27.1738 19.7864 23.5123C18.7859 24.7613 17.5129 25.7647 16.0648 26.4459C14.6167 27.127 13.0319 27.4678 11.4319 27.442C9.2595 27.5608 3.37224 26.209 3.67514 19.9415C3.46297 14.8335 8.22002 11.6603 13.1399 11.9286C14.0873 11.9312 16.0221 11.9779 19.4101 12.7652V10.6809C19.769 7.15016 17.4486 4.41069 13.4308 4.82167C13.1105 4.82301 10.8421 4.75495 7.31398 6.17073C6.33188 6.62175 6.20645 6.54702 5.87953 6.54702C4.89076 6.54702 5.29774 3.68078 5.48722 3.31783C6.18243 2.46383 10.2723 0.869253 14.2861 0.891938C16.9699 0.654632 19.6392 1.4829 21.7172 3.19774C22.5618 4.14265 23.2062 5.24891 23.6115 6.44974C24.0167 7.65057 24.1744 8.92106 24.0751 10.1845L24.0737 19.4304ZM12.5421 23.7525C16.8694 23.6897 18.7015 21.0877 19.1192 19.6866C19.4475 18.3456 19.3928 17.4969 19.3928 16.0304C18.1024 15.7209 16.245 15.3833 14.114 15.3806C12.0924 15.2285 8.40016 16.1318 8.54428 19.6853C8.37881 21.9257 10.0281 23.8752 12.5421 23.7525ZM35.3492 26.8282C34.3004 26.9243 33.812 26.1797 33.6572 25.4444L27.012 3.47395C26.8826 3.103 26.7972 2.72003 26.7558 2.32906C26.7313 2.16787 26.7718 2.00354 26.8684 1.87219C26.965 1.74083 27.1097 1.65318 27.2709 1.62851C27.3029 1.62318 26.9867 1.62851 30.2399 1.62851C31.4115 1.51109 31.7931 2.43314 31.9145 3.01226L36.6809 21.8043L41.1057 3.01226C41.1764 2.58259 41.498 1.53511 42.8137 1.64586H45.1035C45.3931 1.62184 46.586 1.57914 46.7955 3.02961L51.255 22.0618L56.1748 3.02961C56.2389 2.73871 56.5378 1.51242 57.8668 1.64586H60.4982C60.6116 1.62851 61.3188 1.53777 61.1987 2.79075C61.1414 3.03761 61.6538 1.36831 54.1599 25.4618C54.0065 26.197 53.5167 26.9416 52.4679 26.8455H49.974C48.5142 26.999 48.3047 25.5565 48.282 25.4111L43.8572 7.1128L39.4831 25.3924C39.4618 25.5379 39.2523 26.9803 37.7911 26.8269H35.3492V26.8282ZM71.8417 27.5794C71.0571 27.5808 67.3155 27.5394 64.1877 25.9395C63.8762 25.8076 63.6108 25.5862 63.4252 25.3032C63.2397 25.0203 63.1424 24.6886 63.1456 24.3503V22.9158C63.1456 21.7883 63.9729 21.9951 64.3238 22.1299C65.6636 22.6716 66.5229 23.0826 68.1682 23.4109C73.0587 24.4156 75.2097 23.104 75.7368 22.8131C77.4915 21.7709 77.6302 19.3864 76.4373 18.1494C75.0389 16.9765 74.3717 16.9325 69.3478 15.3472C68.7286 15.1751 63.5165 13.5311 63.5045 8.36044C63.4231 4.59216 66.8471 0.863915 72.7811 0.894606C74.4718 0.893272 78.9766 1.4457 80.1962 2.9789C80.3764 3.25779 80.4658 3.58604 80.4524 3.9183V5.26735C80.4524 5.85982 80.2363 6.15605 79.8026 6.15605C78.7738 6.04129 76.9484 4.66555 73.2428 4.7216C72.3234 4.67356 67.92 4.84302 68.1175 8.05353C68.0601 10.5835 71.6682 11.5322 72.0806 11.6417C76.9457 13.1055 78.5723 13.3483 80.5031 15.5888C82.7903 18.5577 81.5573 22.0338 81.0836 22.9865C78.5376 27.9891 71.9538 27.5821 71.8417 27.5794ZM77.2059 41.5717C67.8613 48.4731 54.296 52.1466 42.7136 52.1466C27.0855 52.2497 11.9841 46.5031 0.377898 36.0367C-0.493449 35.2508 0.275151 34.1739 1.33465 34.7731C14.2093 42.1377 28.7861 46.0073 43.6183 45.9978C54.6946 45.9385 65.6501 43.6915 75.8555 39.386C77.4274 38.7188 78.7605 40.4268 77.2059 41.5717ZM81.101 37.1296C79.9053 35.5924 73.1908 36.4117 70.1844 36.7706C69.2784 36.8734 69.1249 36.0874 69.9456 35.507C75.2924 31.748 84.0739 32.8249 85.0827 34.0885C86.0902 35.3522 84.8092 44.1511 79.8039 48.3543C79.0353 49.0042 78.3001 48.6613 78.6417 47.8072C79.7679 44.9717 82.2966 38.6681 81.101 37.1296Z" fill="#C6C6D1"/>
</svg>
