<svg width="118" height="39" viewBox="0 0 118 39" fill="none" xmlns="http://www.w3.org/2000/svg">
<path d="M95.0758 36.7913V2.20892H103.086V29.7647H117.113V36.7782H95.0758V36.7913ZM30.945 15.2396L50.4779 0.216309L55.9903 4.71935L37.4603 18.7463L41.4652 22.2531L59.9952 7.72795L65.5077 12.2376C59.3605 17.1167 53.1837 21.9585 46.9777 26.7627L50.976 30.276L69.5257 15.233L69.5192 2.21548H77.5355V29.7713H92.0606V36.7847H70.0239V23.7606L50.4844 38.7839L30.945 23.7606C30.0011 28.539 26.6648 32.675 22.3453 34.8642C20.4696 35.8191 18.4386 36.4317 16.3478 36.6733C15.1483 36.8175 13.9422 36.7847 12.7361 36.7847H0.380615V2.21548H14.6304C18.3578 2.25125 21.9654 3.53687 24.8754 5.86642C27.8512 8.2261 29.9749 11.5821 30.9516 15.2396M7.90536 9.22896V30.2694L14.152 30.2629C15.4649 30.2188 16.7524 29.8894 17.9251 29.2973C19.0978 28.7053 20.1275 27.865 20.9426 26.8348C22.3187 25.1079 23.1639 23.0188 23.3757 20.8209C23.5874 18.6229 23.1566 16.4108 22.1355 14.453C21.4891 13.2082 20.5837 12.1162 19.4803 11.2502C18.3769 10.3842 17.101 9.76429 15.7382 9.43215C14.6501 9.16997 13.5227 9.23552 12.415 9.22241L7.90536 9.22896Z" fill="#C6C6D1"/>
</svg>
