<svg width="82" height="12" viewBox="0 0 82 12" fill="none" xmlns="http://www.w3.org/2000/svg">
<path d="M6.96261 0.330939L8.78277 3.80286L12.8516 4.35974C12.9032 4.36694 12.9517 4.38753 12.9915 4.41919C13.0314 4.45084 13.061 4.49231 13.0771 4.53891C13.0932 4.58551 13.0951 4.6354 13.0826 4.68296C13.0701 4.73052 13.0437 4.77387 13.0063 4.80811L10.0627 7.51002L10.7577 11.326C10.7666 11.3742 10.761 11.4238 10.7414 11.4692C10.7219 11.5146 10.6891 11.5539 10.647 11.5828C10.6048 11.6116 10.5548 11.6288 10.5028 11.6323C10.4507 11.6358 10.3987 11.6256 10.3525 11.6028L6.71301 9.80156L3.07353 11.6034C3.02738 11.6262 2.97532 11.6365 2.92326 11.633C2.87119 11.6295 2.82122 11.6124 2.77901 11.5836C2.7368 11.5548 2.70406 11.5154 2.6845 11.47C2.66493 11.4246 2.65934 11.375 2.66834 11.3267L3.36335 7.51002L0.41887 4.80811C0.381536 4.77387 0.355131 4.73052 0.34263 4.68296C0.330129 4.6354 0.332027 4.58551 0.348112 4.53891C0.364197 4.49231 0.39383 4.45084 0.433672 4.41919C0.473514 4.38753 0.521985 4.36694 0.573624 4.35974L4.64242 3.80286L6.46341 0.330939C6.48612 0.286942 6.52157 0.249837 6.56572 0.223875C6.60986 0.197913 6.66091 0.184143 6.71301 0.184143C6.76511 0.184143 6.81615 0.197913 6.8603 0.223875C6.90444 0.249837 6.9399 0.286942 6.96261 0.330939Z" fill="#6615EF"/>
<path d="M24.1836 0.330939L26.0037 3.80286L30.0725 4.35974C30.1242 4.36694 30.1726 4.38753 30.2125 4.41919C30.2523 4.45084 30.2819 4.49231 30.298 4.53891C30.3141 4.58551 30.316 4.6354 30.3035 4.68296C30.291 4.73052 30.2646 4.77387 30.2273 4.80811L27.2836 7.51002L27.9786 11.326C27.9876 11.3742 27.982 11.4238 27.9624 11.4692C27.9428 11.5146 27.9101 11.5539 27.8679 11.5828C27.8257 11.6116 27.7758 11.6288 27.7237 11.6323C27.6717 11.6358 27.6196 11.6256 27.5734 11.6028L23.934 9.80156L20.2945 11.6034C20.2483 11.6262 20.1963 11.6365 20.1442 11.633C20.0921 11.6295 20.0422 11.6124 20 11.5836C19.9578 11.5548 19.925 11.5154 19.9054 11.47C19.8859 11.4246 19.8803 11.375 19.8893 11.3267L20.5843 7.51002L17.6398 4.80811C17.6025 4.77387 17.5761 4.73052 17.5636 4.68296C17.5511 4.6354 17.553 4.58551 17.5691 4.53891C17.5851 4.49231 17.6148 4.45084 17.6546 4.41919C17.6945 4.38753 17.7429 4.36694 17.7946 4.35974L21.8634 3.80286L23.6844 0.330939C23.7071 0.286942 23.7425 0.249837 23.7867 0.223875C23.8308 0.197913 23.8819 0.184143 23.934 0.184143C23.9861 0.184143 24.0371 0.197913 24.0812 0.223875C24.1254 0.249837 24.1608 0.286942 24.1836 0.330939Z" fill="#6615EF"/>
<path d="M41.4045 0.330939L43.2247 3.80286L47.2935 4.35974C47.3451 4.36694 47.3936 4.38753 47.4334 4.41919C47.4733 4.45084 47.5029 4.49231 47.519 4.53891C47.5351 4.58551 47.537 4.6354 47.5245 4.68296C47.512 4.73052 47.4855 4.77387 47.4482 4.80811L44.5046 7.51002L45.1996 11.326C45.2085 11.3742 45.2029 11.4238 45.1833 11.4692C45.1638 11.5146 45.131 11.5539 45.0889 11.5828C45.0467 11.6116 44.9967 11.6288 44.9447 11.6323C44.8926 11.6358 44.8406 11.6256 44.7944 11.6028L41.1549 9.80156L37.5154 11.6034C37.4693 11.6262 37.4172 11.6365 37.3652 11.633C37.3131 11.6295 37.2631 11.6124 37.2209 11.5836C37.1787 11.5548 37.146 11.5154 37.1264 11.47C37.1068 11.4246 37.1012 11.375 37.1102 11.3267L37.8052 7.51002L34.8608 4.80811C34.8234 4.77387 34.797 4.73052 34.7845 4.68296C34.772 4.6354 34.7739 4.58551 34.79 4.53891C34.8061 4.49231 34.8357 4.45084 34.8756 4.41919C34.9154 4.38753 34.9639 4.36694 35.0155 4.35974L39.0843 3.80286L40.9053 0.330939C40.928 0.286942 40.9635 0.249837 41.0076 0.223875C41.0518 0.197913 41.1028 0.184143 41.1549 0.184143C41.207 0.184143 41.258 0.197913 41.3022 0.223875C41.3463 0.249837 41.3818 0.286942 41.4045 0.330939Z" fill="#6615EF"/>
<path d="M58.6255 0.330939L60.4456 3.80286L64.5144 4.35974C64.566 4.36694 64.6145 4.38753 64.6544 4.41919C64.6942 4.45084 64.7238 4.49231 64.7399 4.53891C64.756 4.58551 64.7579 4.6354 64.7454 4.68296C64.7329 4.73052 64.7065 4.77387 64.6692 4.80811L61.7255 7.51002L62.4205 11.326C62.4295 11.3742 62.4239 11.4238 62.4043 11.4692C62.3847 11.5146 62.352 11.5539 62.3098 11.5828C62.2676 11.6116 62.2177 11.6288 62.1656 11.6323C62.1136 11.6358 62.0615 11.6256 62.0153 11.6028L58.3759 9.80156L54.7364 11.6034C54.6902 11.6262 54.6382 11.6365 54.5861 11.633C54.534 11.6295 54.4841 11.6124 54.4419 11.5836C54.3996 11.5548 54.3669 11.5154 54.3473 11.47C54.3278 11.4246 54.3222 11.375 54.3312 11.3267L55.0262 7.51002L52.0817 4.80811C52.0444 4.77387 52.018 4.73052 52.0055 4.68296C51.993 4.6354 51.9949 4.58551 52.011 4.53891C52.027 4.49231 52.0567 4.45084 52.0965 4.41919C52.1364 4.38753 52.1848 4.36694 52.2365 4.35974L56.3053 3.80286L58.1262 0.330939C58.149 0.286942 58.1844 0.249837 58.2286 0.223875C58.2727 0.197913 58.3238 0.184143 58.3759 0.184143C58.428 0.184143 58.479 0.197913 58.5231 0.223875C58.5673 0.249837 58.6027 0.286942 58.6255 0.330939Z" fill="#6615EF"/>
<path d="M75.8464 0.330939L77.6666 3.80286L81.7354 4.35974C81.787 4.36694 81.8355 4.38753 81.8753 4.41919C81.9151 4.45084 81.9448 4.49231 81.9609 4.53891C81.9769 4.58551 81.9788 4.6354 81.9663 4.68296C81.9538 4.73052 81.9274 4.77387 81.8901 4.80811L78.9465 7.51002L79.6415 11.326C79.6504 11.3742 79.6448 11.4238 79.6252 11.4692C79.6057 11.5146 79.5729 11.5539 79.5307 11.5828C79.4886 11.6116 79.4386 11.6288 79.3866 11.6323C79.3345 11.6358 79.2825 11.6256 79.2363 11.6028L75.5968 9.80156L71.9573 11.6034C71.9112 11.6262 71.8591 11.6365 71.807 11.633C71.755 11.6295 71.705 11.6124 71.6628 11.5836C71.6206 11.5548 71.5878 11.5154 71.5683 11.47C71.5487 11.4246 71.5431 11.375 71.5521 11.3267L72.2471 7.51002L69.3027 4.80811C69.2653 4.77387 69.2389 4.73052 69.2264 4.68296C69.2139 4.6354 69.2158 4.58551 69.2319 4.53891C69.248 4.49231 69.2776 4.45084 69.3175 4.41919C69.3573 4.38753 69.4058 4.36694 69.4574 4.35974L73.5262 3.80286L75.3472 0.330939C75.3699 0.286942 75.4054 0.249837 75.4495 0.223875C75.4937 0.197913 75.5447 0.184143 75.5968 0.184143C75.6489 0.184143 75.6999 0.197913 75.7441 0.223875C75.7882 0.249837 75.8237 0.286942 75.8464 0.330939Z" fill="#6615EF"/>
</svg>
