<svg width="17" height="18" viewBox="0 0 17 18" fill="none" xmlns="http://www.w3.org/2000/svg">
<path d="M5 3.5C5 3.36739 5.05268 3.24021 5.14645 3.14645C5.24021 3.05268 5.36739 3 5.5 3H11.5C11.6326 3 11.7598 3.05268 11.8536 3.14645C11.9473 3.24021 12 3.36739 12 3.5C12 3.63261 11.9473 3.75979 11.8536 3.85355C11.7598 3.94732 11.6326 4 11.5 4H5.5C5.36739 4 5.24021 3.94732 5.14645 3.85355C5.05268 3.75979 5 3.63261 5 3.5ZM4.5 9C4.23478 9 3.98043 9.10536 3.79289 9.29289C3.60536 9.48043 3.5 9.73478 3.5 10C3.5 10.2652 3.60536 10.5196 3.79289 10.7071C3.98043 10.8946 4.23478 11 4.5 11C4.76522 11 5.01957 10.8946 5.20711 10.7071C5.39464 10.5196 5.5 10.2652 5.5 10C5.5 9.73478 5.39464 9.48043 5.20711 9.29289C5.01957 9.10536 4.76522 9 4.5 9ZM12.5 9C12.2348 9 11.9804 9.10536 11.7929 9.29289C11.6054 9.48043 11.5 9.73478 11.5 10C11.5 10.2652 11.6054 10.5196 11.7929 10.7071C11.9804 10.8946 12.2348 11 12.5 11C12.7652 11 13.0196 10.8946 13.2071 10.7071C13.3946 10.5196 13.5 10.2652 13.5 10C13.5 9.73478 13.3946 9.48043 13.2071 9.29289C13.0196 9.10536 12.7652 9 12.5 9ZM7.5 10C7.5 9.73478 7.60536 9.48043 7.79289 9.29289C7.98043 9.10536 8.23478 9 8.5 9C8.76522 9 9.01957 9.10536 9.20711 9.29289C9.39464 9.48043 9.5 9.73478 9.5 10C9.5 10.2652 9.39464 10.5196 9.20711 10.7071C9.01957 10.8946 8.76522 11 8.5 11C8.23478 11 7.98043 10.8946 7.79289 10.7071C7.60536 10.5196 7.5 10.2652 7.5 10ZM4.5 13C4.23478 13 3.98043 13.1054 3.79289 13.2929C3.60536 13.4804 3.5 13.7348 3.5 14C3.5 14.2652 3.60536 14.5196 3.79289 14.7071C3.98043 14.8946 4.23478 15 4.5 15C4.76522 15 5.01957 14.8946 5.20711 14.7071C5.39464 14.5196 5.5 14.2652 5.5 14C5.5 13.7348 5.39464 13.4804 5.20711 13.2929C5.01957 13.1054 4.76522 13 4.5 13ZM7.5 14C7.5 13.7348 7.60536 13.4804 7.79289 13.2929C7.98043 13.1054 8.23478 13 8.5 13C8.76522 13 9.01957 13.1054 9.20711 13.2929C9.39464 13.4804 9.5 13.7348 9.5 14C9.5 14.2652 9.39464 14.5196 9.20711 14.7071C9.01957 14.8946 8.76522 15 8.5 15C8.23478 15 7.98043 14.8946 7.79289 14.7071C7.60536 14.5196 7.5 14.2652 7.5 14Z" fill="#00DAC8"/>
<path d="M10.123 0H6.877C5.777 0 4.919 -7.45058e-09 4.232 0.056C3.534 0.113 2.967 0.231 2.457 0.49C1.61005 0.921469 0.921469 1.61005 0.49 2.457C0.23 2.967 0.113 3.534 0.056 4.232C-7.45058e-09 4.92 0 5.776 0 6.877V11.123C0 12.223 -7.45058e-09 13.081 0.056 13.768C0.113 14.466 0.231 15.033 0.49 15.543C0.921469 16.39 1.61005 17.0785 2.457 17.51C2.967 17.77 3.534 17.887 4.232 17.944C4.92 18 5.776 18 6.877 18H10.123C11.223 18 12.081 18 12.768 17.944C13.466 17.887 14.033 17.769 14.543 17.51C15.39 17.0785 16.0785 16.39 16.51 15.543C16.77 15.033 16.887 14.466 16.944 13.768C17 13.081 17 12.224 17 11.123V6.877C17 5.777 17 4.919 16.944 4.232C16.887 3.534 16.769 2.967 16.51 2.457C16.0785 1.61005 15.39 0.921469 14.543 0.49C14.033 0.23 13.466 0.113 12.768 0.056C12.08 -7.45058e-09 11.224 0 10.123 0ZM2.91 1.381C3.256 1.205 3.676 1.105 4.313 1.053C4.955 1 5.772 1 6.9 1H10.1C11.228 1 12.045 1 12.686 1.053C13.323 1.105 13.743 1.205 14.089 1.381C14.7478 1.7166 15.2834 2.2522 15.619 2.911C15.795 3.257 15.895 3.677 15.947 4.314C15.985 4.771 15.996 5.316 15.999 6H1C1.004 5.316 1.014 4.77 1.052 4.314C1.104 3.677 1.204 3.257 1.38 2.911C1.7156 2.2522 2.2512 1.7166 2.91 1.381ZM1 7H16V11.1C16 12.228 16 13.045 15.947 13.686C15.895 14.323 15.795 14.743 15.619 15.089C15.2834 15.7478 14.7478 16.2834 14.089 16.619C13.743 16.795 13.323 16.895 12.687 16.947C12.045 17 11.228 17 10.1 17H6.9C5.772 17 4.955 17 4.314 16.947C3.677 16.895 3.257 16.795 2.911 16.619C2.2522 16.2834 1.7166 15.7478 1.381 15.089C1.205 14.743 1.105 14.323 1.053 13.687C1 13.045 1 12.228 1 11.1V7Z" fill="#00DAC8"/>
</svg>
