<svg width="24" height="23" viewBox="0 0 24 23" fill="none" xmlns="http://www.w3.org/2000/svg">
<path fill-rule="evenodd" clip-rule="evenodd" d="M12.0001 22.5069C6.76906 22.5069 4.15356 22.5069 2.52788 20.8813C0.90332 19.2578 0.90332 16.6412 0.90332 11.4102C0.90332 6.17918 0.90332 3.56368 2.52788 1.93801C4.15467 0.313446 6.76906 0.313446 12.0001 0.313446C17.2311 0.313446 19.8466 0.313446 21.4711 1.93801C23.0968 3.56479 23.0968 6.17918 23.0968 11.4102C23.0968 16.6412 23.0968 19.2567 21.4711 20.8813C19.8477 22.5069 17.2311 22.5069 12.0001 22.5069ZM14.7454 7.43644C14.9163 7.57597 15.0249 7.77768 15.0471 7.99721C15.0694 8.21675 15.0036 8.43614 14.8641 8.60715L8.52345 16.3749C8.4454 16.4705 8.34706 16.5475 8.23555 16.6005C8.12404 16.6534 8.00216 16.6808 7.87873 16.6808C7.7553 16.6808 7.63342 16.6534 7.52191 16.6005C7.41041 16.5475 7.31206 16.4705 7.23401 16.3749L4.6973 13.2678C4.56341 13.0962 4.50204 12.8791 4.52634 12.6628C4.55064 12.4466 4.65867 12.2484 4.82728 12.1109C4.9959 11.9733 5.21169 11.9073 5.42841 11.9269C5.64514 11.9465 5.84556 12.0502 5.98674 12.2158L7.87873 14.5328L13.5747 7.55518C13.7142 7.38423 13.9159 7.2757 14.1355 7.25343C14.355 7.23117 14.5744 7.29699 14.7454 7.43644ZM19.1841 7.43644C19.355 7.57597 19.4636 7.77768 19.4858 7.99721C19.5081 8.21675 19.4423 8.43614 19.3028 8.60715L12.9621 16.3749C12.8794 16.4765 12.7739 16.5572 12.6541 16.6103C12.5343 16.6634 12.4036 16.6875 12.2727 16.6806C12.1419 16.6736 12.0145 16.6359 11.901 16.5704C11.7875 16.505 11.691 16.4136 11.6194 16.3038L11.3032 15.8178C11.2081 15.6719 11.1612 15.4999 11.169 15.3259C11.1769 15.152 11.2391 14.9848 11.3469 14.8481C11.4548 14.7114 11.6028 14.6119 11.7701 14.5637C11.9374 14.5155 12.1157 14.521 12.2797 14.5794L18.0134 7.55518C18.1529 7.38423 18.3546 7.2757 18.5742 7.25343C18.7937 7.23117 19.0131 7.29699 19.1841 7.43644Z" fill="#00DAC8"/>
</svg>
