<svg width="140" height="47" viewBox="0 0 140 47" fill="none" xmlns="http://www.w3.org/2000/svg">
<path d="M34.092 16.7779H17.8118V21.609H29.3601C28.7866 28.3814 23.1503 31.2712 17.8339 31.2712C14.4113 31.2712 11.1288 29.9116 8.70866 27.4914C6.2885 25.0713 4.92887 21.7888 4.92887 18.3662C4.92887 14.9436 6.2885 11.6611 8.70866 9.24098C11.1288 6.82083 14.4113 5.4612 17.8339 5.4612C21.078 5.45615 24.1976 6.70954 26.5365 8.95768L29.9227 5.45016C26.6513 2.28904 22.2612 0.55204 17.7125 0.619057C15.382 0.635714 13.0775 1.11125 10.9307 2.01852C8.78386 2.92579 6.83677 4.24702 5.20058 5.90677C3.56438 7.56652 2.27112 9.5323 1.39463 11.6919C0.518142 13.8514 0.0755928 16.1625 0.0922502 18.493C0.108908 20.8236 0.584445 23.1281 1.49171 25.2749C2.39898 27.4217 3.72021 29.3688 5.37996 31.005C7.03971 32.6412 9.00549 33.9345 11.165 34.811C13.3246 35.6875 15.6356 36.13 17.9662 36.1133C27.463 36.1133 34.4229 29.6057 34.4229 19.9766C34.4437 18.9026 34.3438 17.8296 34.1251 16.7779H34.092ZM47.4272 13.2814C45.1753 13.2901 42.9763 13.9653 41.1076 15.2219C39.2388 16.4784 37.7839 18.26 36.9261 20.3422C36.0684 22.4244 35.8463 24.7139 36.2877 26.9221C36.7292 29.1303 37.8145 31.1584 39.4069 32.7508C40.9992 34.3431 43.0273 35.4284 45.2355 35.8699C47.4438 36.3114 49.7332 36.0892 51.8154 35.2315C53.8976 34.3737 55.6792 32.9188 56.9358 31.05C58.1923 29.1813 58.8675 26.9824 58.8762 24.7305C58.9 23.2204 58.6202 21.7209 58.0533 20.3211C57.4863 18.9212 56.6439 17.6496 55.576 16.5817C54.508 15.5137 53.2364 14.6713 51.8366 14.1044C50.4367 13.5374 48.9372 13.2576 47.4272 13.2814ZM47.4933 17.7596C48.8814 17.6778 50.262 18.015 51.4561 18.7274C52.6502 19.4398 53.6026 20.4946 54.1899 21.7549C54.7773 23.0152 54.9723 24.423 54.7498 25.7955C54.5273 27.1681 53.8976 28.4421 52.9422 29.4523C51.9868 30.4626 50.7499 31.1625 49.3919 31.4612C48.0339 31.7599 46.6175 31.6437 45.3263 31.1276C44.0352 30.6115 42.9289 29.7194 42.151 28.5669C41.3731 27.4144 40.9594 26.0547 40.9636 24.6643C40.9173 23.7769 41.0517 22.8893 41.3586 22.0554C41.6656 21.2215 42.1387 20.4586 42.7492 19.813C43.3598 19.1674 44.0951 18.6525 44.9106 18.2995C45.7261 17.9465 46.6047 17.7628 47.4933 17.7596ZM72.3768 13.2814C70.1245 13.288 67.9244 13.9613 66.0542 15.2165C64.184 16.4717 62.7274 18.2526 61.8679 20.3346C61.0085 22.4166 60.7848 24.7064 61.225 26.9154C61.6653 29.1243 62.7497 31.1535 64.3416 32.7469C65.9335 34.3404 67.9616 35.4268 70.1702 35.8691C72.3787 36.3115 74.6687 36.09 76.7515 35.2326C78.8343 34.3751 80.6166 32.9202 81.8737 31.0512C83.1307 29.1822 83.8061 26.9828 83.8149 24.7305C83.8387 23.2213 83.5591 21.7228 82.9929 20.3237C82.4266 18.9246 81.5852 17.6535 80.5184 16.5857C79.4517 15.5179 78.1814 14.6752 76.7828 14.1076C75.3843 13.54 73.886 13.2591 72.3768 13.2814ZM72.443 17.7596C73.8311 17.6778 75.2117 18.015 76.4058 18.7274C77.5998 19.4398 78.5523 20.4946 79.1396 21.7549C79.727 23.0152 79.922 24.423 79.6995 25.7955C79.477 27.1681 78.8472 28.4421 77.8919 29.4523C76.9365 30.4626 75.6996 31.1625 74.3416 31.4612C72.9836 31.7599 71.5671 31.6437 70.276 31.1276C68.9849 30.6115 67.8786 29.7194 67.1007 28.5669C66.3228 27.4144 65.9091 26.0547 65.9133 24.6643C65.867 23.7769 66.0014 22.8893 66.3083 22.0554C66.6153 21.2215 67.0883 20.4586 67.6989 19.813C68.3095 19.1674 69.0448 18.6525 69.8603 18.2995C70.6758 17.9465 71.5544 17.7628 72.443 17.7596ZM96.8302 13.2924C90.6975 13.2924 85.8775 18.664 85.8775 24.6863C85.8323 27.6293 86.9421 30.4728 88.969 32.6069C90.996 34.741 93.7785 35.9959 96.7199 36.1023C97.9068 36.167 99.0922 35.9498 100.179 35.4687C101.266 34.9875 102.224 34.2559 102.974 33.3338V35.5398C102.974 39.4775 100.58 41.8268 96.9736 41.8268C95.7157 41.8164 94.4895 41.4309 93.452 40.7196C92.4146 40.0083 91.6129 39.0035 91.1498 37.834L86.7378 39.665C87.5911 41.6739 89.0213 43.3846 90.8473 44.5803C92.6733 45.776 94.813 46.4031 96.9956 46.3822C103.095 46.3822 107.739 42.5438 107.739 34.4919V13.9763H102.985V15.9065C102.205 15.0565 101.253 14.3833 100.191 13.9324C99.1292 13.4815 97.9833 13.2632 96.8302 13.2924ZM97.2714 17.7596C100.283 17.7596 103.36 20.3295 103.36 24.7084C103.36 29.0873 100.283 31.6242 97.2052 31.6242C96.335 31.602 95.4781 31.4049 94.6856 31.0446C93.8932 30.6843 93.1814 30.1682 92.5927 29.527C92.0039 28.8857 91.5503 28.1325 91.2588 27.3123C90.9673 26.492 90.844 25.6215 90.8961 24.7525C90.8961 20.3406 94.0506 17.7596 97.2714 17.7596ZM129.038 13.2593C123.258 13.2593 118.394 17.8588 118.394 24.6533C118.337 26.1506 118.585 27.644 119.124 29.0421C119.663 30.4402 120.482 31.7138 121.529 32.7852C122.577 33.8566 123.832 34.7033 125.218 35.2736C126.603 35.8439 128.091 36.1259 129.589 36.1023C131.468 36.106 133.32 35.652 134.984 34.7795C136.648 33.907 138.075 32.6423 139.141 31.0947L135.192 28.4696C134.62 29.4403 133.802 30.2424 132.819 30.7945C131.837 31.3466 130.727 31.629 129.6 31.6131C128.43 31.6615 127.272 31.3585 126.275 30.7433C125.279 30.128 124.489 29.2286 124.008 28.1608L139.306 21.8186L138.512 19.9545C137.783 18.0181 136.489 16.3455 134.797 15.1536C133.106 13.9617 131.095 13.3056 129.027 13.2704L129.038 13.2593ZM129.236 17.6713C130.099 17.6341 130.955 17.8436 131.703 18.2754C132.451 18.7071 133.061 19.3431 133.461 20.1089L123.247 24.3775C123.196 23.5431 123.311 22.707 123.585 21.9173C123.86 21.1276 124.287 20.4001 124.844 19.7766C125.401 19.1531 126.076 18.6461 126.83 18.2847C127.583 17.9234 128.401 17.7149 129.236 17.6713ZM111.103 35.4295H116.133V1.79926H111.103V35.4295Z" fill="#C6C6D1"/>
</svg>
