<svg width="243" height="53" viewBox="0 0 243 53" fill="none" xmlns="http://www.w3.org/2000/svg">
<path d="M24.9866 27.7814V52.3988H0.378906V27.7814H24.9866ZM52.1667 27.7814V52.3988H27.5541V27.7814H52.1667ZM227.347 8.6971C228.331 8.6971 229.156 8.78123 229.823 8.94948L230.386 9.12422V13.6186L230.191 13.5313C229.467 13.2008 228.682 13.0224 227.886 13.0071C226.841 13.0103 226.032 13.342 225.459 14.0021C224.98 14.5586 224.699 15.3384 224.615 16.3415L224.59 16.9676V19.7681H232.448V14.7398L237.7 13.1333V19.7681H243V24.0344H237.7V34.5327C237.7 35.8853 237.939 36.8398 238.418 37.3964C238.894 37.94 239.645 38.2118 240.67 38.2118C241.026 38.2019 241.379 38.1431 241.719 38.037C241.977 37.9626 242.229 37.8668 242.471 37.7507L242.782 37.5711L243 37.4255V41.7355L242.927 41.7743C242.408 42.0211 241.858 42.1958 241.292 42.2936C240.515 42.4619 239.766 42.546 239.044 42.546C234.919 42.546 232.715 40.4347 232.468 36.2606L232.448 35.4549V24.0344H224.59V42.0073H219.295V24.0344H215.606V19.7633H219.295V16.6861C219.295 15.1362 219.633 13.7513 220.309 12.5314C220.992 11.3148 221.947 10.3716 223.173 9.70179C224.396 9.03685 225.804 8.6971 227.347 8.6971ZM204.011 19.2294C207.467 19.2294 210.209 20.2583 212.155 22.2871C214.107 24.3159 215.092 27.1359 215.092 30.6741C215.092 34.2561 214.039 37.1585 211.961 39.3087C209.889 41.454 207.03 42.546 203.477 42.546C200.065 42.546 197.308 41.5122 195.28 39.4688C193.256 37.4303 192.227 34.625 192.227 31.1449C192.227 27.4805 193.28 24.5441 195.357 22.423C197.435 20.302 200.347 19.2294 204.011 19.2294ZM183.689 19.2294C184.456 19.2294 185.325 19.32 186.296 19.5012C187.024 19.6338 187.655 19.7924 188.188 19.9768L188.761 20.2001V25.0391L188.543 24.8887C187.82 24.4121 187.029 24.0457 186.198 23.8015C185.329 23.5323 184.425 23.3932 183.514 23.3889C182.56 23.3889 181.809 23.6008 181.262 24.0247C181.011 24.2059 180.807 24.4444 180.667 24.7205C180.527 24.9966 180.455 25.3022 180.457 25.6119C180.457 26.3431 180.667 26.9142 181.088 27.3252C181.282 27.5064 181.583 27.7102 181.99 27.9367L182.961 28.4221L183.563 28.6793L184.233 28.956C186.31 29.7973 187.779 30.734 188.64 31.7662C189.504 32.8 189.941 34.0862 189.941 35.586C189.941 37.6633 189.13 39.3621 187.528 40.6386C185.936 41.9005 183.757 42.546 181.049 42.546C180.175 42.546 179.161 42.4295 178.049 42.1966C177.298 42.0495 176.56 41.8433 175.841 41.5802L175.161 41.2938V36.1975L175.38 36.3528C176.286 37 177.274 37.5015 178.345 37.8575C179.416 38.2069 180.382 38.3833 181.243 38.3865C183.544 38.3865 184.665 37.6585 184.665 36.1635C184.686 35.7191 184.571 35.2788 184.335 34.9016C184.009 34.5049 183.608 34.1766 183.155 33.9358L182.777 33.7271L181.777 33.2465L180.481 32.6884C179.041 32.0704 177.967 31.4701 177.258 30.8877C176.574 30.3342 176.031 29.6253 175.676 28.8201C175.315 27.9469 175.139 27.008 175.161 26.0632C175.161 24.0539 175.967 22.3939 177.554 21.1271C179.127 19.8652 181.194 19.2342 183.689 19.2342M161.591 19.2342C165.047 19.2342 167.784 20.2632 169.735 22.292C171.686 24.3208 172.667 27.1407 172.667 30.679C172.667 34.2609 171.618 37.1634 169.541 39.3135C167.464 41.4637 164.61 42.5509 161.052 42.5509C157.64 42.5509 154.888 41.5171 152.859 39.4737C150.83 37.4352 149.801 34.6347 149.801 31.1498C149.801 27.4853 150.86 24.5489 152.932 22.4279C155.004 20.3069 157.921 19.2342 161.591 19.2342ZM127.164 19.2342C128.103 19.2342 129.077 19.3394 130.086 19.5497C130.847 19.705 131.49 19.8992 132.018 20.1322L132.576 20.4088V25.4565L132.358 25.3012C130.775 24.1509 129.096 23.5685 127.378 23.5685C125.368 23.5685 123.718 24.248 122.476 25.5924C121.224 26.9417 120.588 28.7667 120.588 31.0187C120.588 33.2611 121.194 35.0424 122.393 36.3092C123.597 37.5808 125.231 38.2182 127.295 38.2215C128.036 38.2215 128.871 38.0597 129.8 37.7361C130.415 37.5193 131 37.2491 131.557 36.9256L132.358 36.4014L132.576 36.2412V41.0317L132.508 41.0705C130.809 42.0509 128.683 42.5509 126.198 42.5509C124.205 42.5835 122.236 42.1039 120.481 41.1579C118.822 40.2432 117.462 38.8699 116.564 37.2022C115.613 35.445 115.13 33.4728 115.161 31.475C115.161 29.0725 115.647 26.9223 116.603 25.078C117.564 23.2336 118.976 21.7775 120.801 20.7631C122.621 19.7487 124.767 19.2342 127.164 19.2342ZM147.326 19.3847C147.98 19.3847 148.53 19.4429 148.976 19.5594L149.462 19.7342V25.01L149.238 24.8498C148.863 24.6168 148.451 24.4493 148.02 24.3548C147.508 24.2111 146.98 24.1329 146.448 24.1218C145.779 24.1119 145.118 24.2708 144.527 24.5839C143.935 24.8969 143.433 25.354 143.065 25.9128C142.32 26.9482 141.895 28.2538 141.788 29.8296L141.759 30.6353V42.0121H136.527V19.773H141.759V23.6219H141.812C142.303 22.3745 142.943 21.3698 143.827 20.6418C144.839 19.8037 146.006 19.3847 147.326 19.3847ZM111.555 19.773V42.0121H106.323V19.773H111.555ZM75.3814 10.9783L84.4964 34.0328L93.8881 10.9783H101.275V42.0121H95.9363V18.1325H95.7664L86.2922 42.0121H82.5064L72.8769 18.1325H72.7071V42.0121H67.6884V10.9783H75.3814ZM203.73 23.5685C201.837 23.5685 200.332 24.214 199.264 25.4905C198.192 26.7767 197.648 28.6211 197.648 30.9751C197.648 33.2724 198.187 35.0553 199.264 36.3237C200.332 37.5857 201.851 38.2166 203.773 38.2166C205.705 38.2166 207.185 37.5954 208.171 36.3625C209.161 35.12 209.661 33.266 209.661 30.8489C209.661 28.4658 209.127 26.6311 208.074 25.408C207.03 24.1849 205.564 23.5685 203.73 23.5685ZM161.309 23.5636C159.416 23.5636 157.912 24.2092 156.844 25.4857C155.771 26.7719 155.223 28.6162 155.223 30.9702C155.223 33.2676 155.763 35.0505 156.844 36.3189C157.918 37.5808 159.42 38.2118 161.348 38.2118C163.29 38.2118 164.755 37.5937 165.745 36.3577C166.736 35.1152 167.24 33.2611 167.24 30.844C167.24 28.4609 166.706 26.6263 165.653 25.4031C164.598 24.1768 163.149 23.562 161.304 23.5588M24.9866 0.601318V25.2139H0.378906V0.601318H24.9866ZM52.1618 0.601318V25.2139H27.5541V0.601318H52.1618ZM108.992 10.2891C109.902 10.2923 110.66 10.5916 111.269 11.187C111.561 11.4645 111.793 11.7998 111.949 12.1716C112.106 12.5434 112.183 12.9436 112.176 13.3468C112.185 13.7495 112.106 14.1493 111.944 14.5181C111.782 14.887 111.542 15.2161 111.24 15.4824C110.627 16.0438 109.823 16.3494 108.992 16.3366C108.165 16.3532 107.363 16.0488 106.755 15.4873C106.457 15.217 106.221 14.8862 106.062 14.517C105.903 14.1478 105.825 13.7488 105.833 13.3468C105.833 12.4797 106.143 11.7516 106.765 11.1627C107.364 10.5902 108.164 10.2764 108.992 10.2891Z" fill="#C6C6D1"/>
</svg>
