<svg width="193" height="49" viewBox="0 0 193 49" fill="none" xmlns="http://www.w3.org/2000/svg">
<path d="M137.291 19.2751C134.463 19.2751 132.444 20.2413 131.454 22.0705L130.921 23.0611V19.752H126.319V39.8677H131.16V27.8999C131.16 25.0407 132.714 23.4006 135.421 23.4006C138.002 23.4006 139.483 24.9976 139.483 27.781V39.8673H144.326V26.9176C144.326 22.1283 141.696 19.2751 137.291 19.2751ZM113.816 19.2751C108.103 19.2751 104.566 22.8397 104.566 28.5765V31.4008C104.566 36.9177 108.145 40.3442 113.906 40.3442C117.76 40.3442 120.461 38.9322 122.161 36.0276L119.16 34.3009C117.904 35.9762 115.898 37.0141 113.908 37.0141C110.991 37.0141 109.25 35.2138 109.25 32.1962V31.3966H122.761V28.0605C122.761 22.7162 119.252 19.2751 113.82 19.2751H113.816ZM118.356 28.1446H109.234V27.6617C109.234 24.3503 110.86 22.523 113.812 22.523C116.654 22.523 118.352 24.3233 118.352 27.3409L118.356 28.1446ZM192.4 16.4406V12.5927H175.655V16.4406H181.526V36.0111H175.655V39.859H192.4V36.0111H186.527V16.4406H192.4ZM65.4385 12.0378C57.9604 12.0378 53.3113 16.6977 53.3113 24.2025V28.2598C53.3113 35.7624 57.9585 40.4245 65.4385 40.4245C72.9186 40.4245 77.5661 35.7624 77.5661 28.2598V24.2021C77.5642 16.6894 72.9104 12.0378 65.4385 12.0378ZM72.5629 28.5371C72.5629 33.5197 69.9667 36.3766 65.4385 36.3766C60.9104 36.3766 58.3161 33.5197 58.3161 28.5371V23.9226C58.3161 18.94 60.9145 16.0831 65.4408 16.0831C69.9671 16.0831 72.5648 18.9396 72.5648 23.9226L72.5629 28.5371ZM92.7709 19.2747C90.2303 19.2747 88.0307 20.3272 86.8837 22.0889L86.3636 22.8903V19.7516H81.7596V46.7887H86.6022V36.9953L87.12 37.7642C88.2097 39.3799 90.3372 40.3438 92.8122 40.3438C96.9865 40.3438 101.198 37.616 101.198 31.5193V28.0992C101.198 23.7065 98.6022 19.2747 92.7709 19.2747ZM96.3558 31.2829C96.3558 34.5249 94.4646 36.5391 91.4223 36.5391C88.5857 36.5391 86.6064 34.4097 86.6064 31.3632V28.3375C86.6064 25.2542 88.6022 23.0836 91.4636 23.0836C94.483 23.0836 96.3595 25.0959 96.3595 28.3375L96.3558 31.2829ZM157.707 12.5946L147.937 39.8673H152.856L154.726 34.0213H165.957L165.976 34.0791L167.826 39.8673H172.743L162.956 12.5924L157.707 12.5946ZM155.926 30.1757L160.333 16.387L164.695 30.1757H155.926ZM43.8433 20.2083C44.3734 18.6173 44.5574 16.9313 44.383 15.2635C44.2086 13.5956 43.6799 11.9842 42.8321 10.5373C41.5738 8.35017 39.6541 6.61875 37.3491 5.59222C35.0441 4.5657 32.4729 4.29702 30.0055 4.82487C28.8925 3.57018 27.5244 2.56759 25.9928 1.88414C24.4611 1.20069 22.8012 0.852129 21.124 0.861767C18.6004 0.855995 16.1401 1.65202 14.0982 3.13501C12.0563 4.618 10.5382 6.71129 9.76299 9.11292C8.12015 9.44995 6.56819 10.1338 5.21088 11.1188C3.85356 12.1038 2.72216 13.3672 1.89232 14.8246C0.627145 17.0078 0.0873934 19.5362 0.35077 22.0458C0.614146 24.5553 1.66706 26.9166 3.35794 28.7896C2.83003 30.3793 2.64716 32.0633 2.82153 33.7293C2.99591 35.3953 3.52352 37.0049 4.36916 38.4508C5.62623 40.642 7.54687 42.3771 9.85398 43.406C12.1611 44.4349 14.7354 44.7042 17.2055 44.1752C18.3175 45.4287 19.684 46.4305 21.2138 47.1139C22.7437 47.7973 24.4018 48.1466 26.0773 48.1383C28.6009 48.1441 31.0612 47.3481 33.1031 45.8651C35.145 44.3821 36.6631 42.2888 37.4383 39.8872C39.0808 39.5498 40.6323 38.8657 41.9892 37.8807C43.3461 36.8957 44.4772 35.6323 45.3067 34.1752C46.575 31.9926 47.1167 29.4634 46.8537 26.9528C46.5907 24.4422 45.5365 22.0806 43.8433 20.2083ZM26.0773 45.0551C24.005 45.0568 21.9981 44.3291 20.4084 42.9997C20.4782 42.9606 20.6141 42.8927 20.6921 42.8413L30.1064 37.4066C30.3427 37.2724 30.5389 37.0777 30.6747 36.8424C30.8106 36.6071 30.8813 36.3398 30.8794 36.0682V22.7943L34.8568 25.0903C34.8782 25.1006 34.8966 25.1162 34.9103 25.1356C34.924 25.1551 34.9324 25.1777 34.9348 25.2013V36.1879C34.9348 41.0811 30.971 45.0495 26.0773 45.0551ZM7.04525 36.9278C6.00771 35.1342 5.6332 33.0331 5.98712 30.9914C6.05654 31.0346 6.17999 31.1085 6.26629 31.1576L15.6829 36.5946C15.9174 36.7318 16.1842 36.8041 16.4558 36.8041C16.7275 36.8041 16.9943 36.7318 17.2288 36.5946L28.7162 29.9517V34.5436C28.7182 34.5672 28.7142 34.5908 28.7044 34.6124C28.6947 34.6339 28.6797 34.6526 28.6607 34.6667L19.1443 40.1592C14.9073 42.5989 9.49508 41.1487 7.04525 36.9173V36.9278ZM4.57891 16.3723C5.61149 14.5759 7.24374 13.2004 9.18927 12.4873V23.6776C9.1878 23.9492 9.25862 24.2163 9.39445 24.4515C9.53028 24.6867 9.72625 24.8815 9.96223 25.016L21.4527 31.651L17.4607 33.9553C17.4413 33.9685 17.4188 33.9765 17.3955 33.9787C17.3721 33.9809 17.3486 33.9771 17.3271 33.9677L7.81221 28.4737C3.57894 26.0246 2.12833 20.6101 4.57028 16.3727L4.57891 16.3723ZM37.2616 23.9781L25.7707 17.3427L29.7444 15.0444C29.7639 15.0316 29.7862 15.0238 29.8094 15.0217C29.8326 15.0195 29.856 15.0231 29.8776 15.0321L39.3928 20.5264C40.8503 21.3685 42.0377 22.6082 42.8161 24.1007C43.5944 25.5931 43.9315 27.2764 43.7879 28.9534C43.6442 30.6305 43.0258 32.2319 42.0049 33.5702C40.9841 34.9085 39.6031 35.9283 38.0236 36.5102V25.3225C38.0266 25.0503 37.9569 24.7822 37.8218 24.5459C37.6866 24.3096 37.4909 24.1136 37.2548 23.9781H37.2616ZM41.2224 18.017C41.13 17.9601 41.0369 17.9045 40.9429 17.8504L31.5267 12.4137C31.2922 12.2766 31.0254 12.2043 30.7537 12.2043C30.482 12.2043 30.2152 12.2766 29.9807 12.4137L18.4903 19.0469V14.4568C18.4896 14.4332 18.4944 14.4098 18.5045 14.3884C18.5145 14.367 18.5294 14.3483 18.5481 14.3338L28.063 8.84125C29.5209 8.00074 31.188 7.59285 32.8693 7.66534C34.5506 7.73783 36.1765 8.28769 37.5566 9.25057C38.9368 10.2135 40.0141 11.5495 40.6626 13.1024C41.3111 14.6553 41.5038 16.3608 41.2183 18.0192L41.2224 18.017ZM16.3219 26.2062L12.3426 23.9102C12.3222 23.8989 12.3047 23.8831 12.2915 23.8639C12.2783 23.8446 12.2697 23.8226 12.2665 23.7995V12.8122C12.2651 11.1283 12.7438 9.47885 13.6465 8.05728C14.5492 6.63572 15.8384 5.50093 17.363 4.78595C18.8876 4.07098 20.5845 3.80544 22.2546 4.02048C23.9248 4.23552 25.4991 4.92221 26.7929 6.00007C26.7231 6.03947 26.5977 6.10701 26.5092 6.15841L17.0948 11.5931C16.8589 11.7276 16.6629 11.9224 16.5271 12.1576C16.3912 12.3928 16.3204 12.66 16.3219 12.9316V26.2062ZM18.4824 21.5467L23.6005 18.5907L28.7166 21.5467V27.4542L23.5986 30.4098L18.4805 27.4542L18.4824 21.5467Z" fill="#C6C6D1"/>
</svg>
