<svg width="24" height="34" viewBox="0 0 24 34" fill="none" xmlns="http://www.w3.org/2000/svg">
<path d="M17.2009 22.201C20.0734 22.201 22.4019 19.8724 22.4019 17C22.4019 14.1276 20.0734 11.7991 17.2009 11.7991C14.3285 11.7991 12 14.1276 12 17C12 19.8724 14.3285 22.201 17.2009 22.201Z" stroke="#6615EF" stroke-width="2" stroke-linecap="round" stroke-linejoin="round"/>
<path d="M12 22.201V27.402C12 28.7813 11.4521 30.1042 10.4767 31.0796C9.50135 32.0549 8.17847 32.6029 6.79909 32.6029C5.41972 32.6029 4.09683 32.0549 3.12147 31.0796C2.1461 30.1042 1.59814 28.7813 1.59814 27.402C1.59814 26.0226 2.1461 24.6997 3.12147 23.7243C4.09683 22.749 5.41972 22.201 6.79909 22.201M12 22.201H6.79909M12 22.201V11.7991M6.79909 22.201C5.41972 22.201 4.09683 21.6531 3.12147 20.6777C2.1461 19.7023 1.59814 18.3794 1.59814 17.0001C1.59814 15.6207 2.1461 14.2978 3.12147 13.3224C4.09683 12.3471 5.41972 11.7991 6.79909 11.7991M12 11.7991H6.79909M12 11.7991V1.39722M12 11.7991H17.201C18.5804 11.7991 19.9032 11.2512 20.8786 10.2758C21.854 9.30042 22.4019 7.97754 22.4019 6.59816C22.4019 5.21879 21.854 3.89591 20.8786 2.92054C19.9032 1.94517 18.5804 1.39722 17.201 1.39722H12M6.79909 11.7991C5.41972 11.7991 4.09683 11.2512 3.12147 10.2758C2.1461 9.30042 1.59814 7.97754 1.59814 6.59816C1.59814 5.21879 2.1461 3.89591 3.12147 2.92054C4.09683 1.94517 5.41972 1.39722 6.79909 1.39722H12" stroke="#6615EF" stroke-width="2" stroke-linecap="round" stroke-linejoin="round"/>
</svg>
