<svg width="38" height="40" viewBox="0 0 38 40" fill="none" xmlns="http://www.w3.org/2000/svg">
<path d="M18.9908 0.0559082C18.4308 0.0559082 17.8708 0.193984 17.3875 0.470136L2.18539 9.24563C1.20351 9.81327 0.589844 10.8872 0.589844 12.0225V27.9472C0.589844 29.0979 1.20351 30.1565 2.18539 30.7241L6.17425 33.0254C8.10731 33.9766 8.79769 33.9766 9.67217 33.9766C12.5411 33.9766 14.1826 32.2429 14.1826 29.236V12.8049C14.1826 12.6869 14.1358 12.5738 14.0523 12.4903C13.9689 12.4069 13.8557 12.36 13.7377 12.36H11.82C11.7614 12.3592 11.7031 12.3701 11.6488 12.3922C11.5944 12.4143 11.5451 12.447 11.5036 12.4885C11.4621 12.53 11.4294 12.5793 11.4073 12.6337C11.3852 12.688 11.3743 12.7463 11.3751 12.8049V29.2206C11.3751 30.5707 9.979 31.8901 7.72376 30.7701L3.5508 28.3615C3.47563 28.3218 3.41291 28.2621 3.36958 28.189C3.32626 28.1159 3.30402 28.0322 3.30534 27.9472V12.0378C3.30534 11.8537 3.39739 11.7003 3.5508 11.6083L18.7545 2.83277C18.8256 2.78777 18.9081 2.76389 18.9923 2.76389C19.0765 2.76389 19.1589 2.78777 19.2301 2.83277L34.4338 11.6083C34.5872 11.7003 34.6792 11.8537 34.6792 12.0225V27.9472C34.6792 28.116 34.5872 28.2848 34.4491 28.3615L19.2301 37.1523C19.1565 37.19 19.075 37.2097 18.9923 37.2097C18.9096 37.2097 18.8281 37.19 18.7545 37.1523L14.8423 34.8357C14.7898 34.7971 14.7276 34.7737 14.6626 34.7683C14.5976 34.7629 14.5324 34.7756 14.4741 34.805C13.3849 35.4187 13.1854 35.4954 12.1729 35.8483C11.9274 35.925 11.5439 36.0784 12.311 36.5079L17.3891 39.5149C17.88 39.7911 18.4323 39.9445 18.9846 39.9445C19.5523 39.9445 20.1046 39.7911 20.5955 39.5149L35.8145 30.7241C36.7964 30.1565 37.4101 29.0979 37.4101 27.9472V12.0378C37.4101 10.8872 36.7964 9.82861 35.8145 9.26097L20.5955 0.470136C20.1107 0.193984 19.5523 0.0559082 18.9908 0.0559082ZM23.0809 12.3385C18.7392 12.3385 16.1464 14.1795 16.1464 17.2479C16.1464 20.5771 18.7238 21.4945 22.8968 21.9087C27.8828 22.3997 28.2664 23.1391 28.2664 24.121C28.2664 25.8086 26.901 26.5297 23.6945 26.5297C19.6597 26.5297 18.7698 25.5156 18.4783 23.5211C18.4635 23.4181 18.4117 23.3241 18.3327 23.2563C18.2537 23.1886 18.1528 23.1519 18.0488 23.1529H16.0697C15.9558 23.1529 15.8465 23.1982 15.7659 23.2788C15.6854 23.3593 15.6401 23.4686 15.6401 23.5825C15.6401 26.1446 17.0362 29.1976 23.6945 29.1976C28.5119 29.1976 31.2734 27.2952 31.2734 23.9814C31.2734 20.6983 29.0488 19.8238 24.3849 19.1948C19.6443 18.5811 19.1687 18.2589 19.1687 17.1543C19.1687 16.2338 19.583 15.0218 23.0809 15.0218C26.1953 15.0218 27.3612 15.6968 27.8368 17.7987C27.8828 17.9981 28.0516 18.1515 28.2664 18.1515H30.2455C30.3682 18.1515 30.4756 18.0902 30.5677 17.9981C30.6094 17.9533 30.6407 17.8998 30.6592 17.8414C30.6778 17.783 30.6832 17.7213 30.6751 17.6606C30.3682 14.0399 27.9596 12.3385 23.0809 12.3385Z" fill="#6615EF"/>
</svg>
