<svg width="32" height="24" viewBox="0 0 32 24" fill="none" xmlns="http://www.w3.org/2000/svg">
<path d="M0.359131 22.9564V0.640663C0.359131 0.477844 0.429017 0.396367 0.56879 0.396232L0.789837 0.395622L1.16767 0.391554L1.69273 0.381184L3.45175 0.343969L5.33787 0.308992C6.00122 0.297469 6.65887 0.291639 7.31082 0.291504C9.08001 0.291504 10.5701 0.512686 11.781 0.955051C12.8734 1.3243 13.8697 1.93275 14.6971 2.73603C15.3986 3.4322 15.9407 4.27225 16.2861 5.19826C16.6127 6.0994 16.7782 7.05095 16.7752 8.00944C16.7752 9.8723 16.3444 11.4089 15.4828 12.6193C14.6403 13.8001 13.4651 14.7032 12.1072 15.2133L11.9906 15.256C10.5726 15.7849 9.00233 15.9761 7.28012 15.9881L7.0125 15.9889L6.61535 15.9868L6.41504 15.984L6.19176 15.9787L6.05714 15.9734L5.97539 15.9692L5.77427 15.9618L5.52842 15.9568L5.15831 15.9541L5.07595 15.9539V22.9215C5.08207 22.9642 5.07816 23.0077 5.06453 23.0487C5.05089 23.0896 5.02791 23.1268 4.9974 23.1573C4.96689 23.1878 4.92969 23.2108 4.88876 23.2244C4.84782 23.2381 4.80427 23.242 4.76156 23.2358H0.603767C0.440541 23.236 0.358995 23.1428 0.359131 22.9564ZM5.07615 4.58697V11.8655C5.37847 11.8889 5.65775 11.9006 5.91398 11.9004H7.06659C7.86125 11.8977 8.65128 11.7794 9.41189 11.5492L9.56359 11.5019C10.2556 11.2965 10.8739 10.8964 11.3448 10.3492C11.7824 9.83312 12.0091 9.12192 12.0248 8.21564L12.0258 8.11416C12.0441 7.43862 11.8684 6.77202 11.5193 6.19348C11.1524 5.63382 10.622 5.20087 10.0002 4.95362C9.18843 4.63795 8.32127 4.48951 7.45073 4.51722L7.00782 4.51844L6.72841 4.52088L6.46181 4.52434L6.08561 4.53166L5.81108 4.53939L5.66853 4.54467L5.47798 4.55362L5.31571 4.56359L5.22318 4.57091L5.14326 4.57863L5.10808 4.5827L5.07615 4.58697ZM30.2779 10.542C29.6687 10.2291 29.0225 9.99389 28.3546 9.84207L28.2001 9.80872C27.4652 9.64015 26.7151 9.54727 25.9613 9.53155L25.773 9.52931C25.3311 9.51731 24.8899 9.57027 24.4634 9.6865C24.192 9.74711 23.9507 9.90167 23.7822 10.1229C23.6683 10.3 23.6077 10.5061 23.6077 10.7167C23.6141 10.9209 23.6877 11.1173 23.8171 11.2753C24.0025 11.4921 24.2253 11.6737 24.475 11.8116L24.5507 11.8516C25.0486 12.1197 25.5616 12.3587 26.0872 12.5674C27.2592 12.96 28.379 13.4936 29.4222 14.1565C30.1329 14.605 30.721 15.223 31.1337 15.9551C31.4804 16.6483 31.6542 17.4151 31.64 18.19C31.6607 19.2134 31.3683 20.2187 30.8018 21.0713C30.1952 21.9367 29.3527 22.6094 28.3745 23.0093C27.3502 23.4594 26.0923 23.692 24.6009 23.7072L24.4459 23.708C23.5214 23.7172 22.5981 23.6363 21.6892 23.4665L21.4948 23.4286C20.7296 23.2883 19.9847 23.0537 19.2772 22.7301C19.2061 22.6935 19.146 22.6386 19.103 22.571C19.0601 22.5035 19.0358 22.4257 19.0328 22.3458V18.5394C19.0286 18.5024 19.0346 18.465 19.05 18.4312C19.0654 18.3973 19.0897 18.3683 19.1203 18.3472C19.1502 18.3302 19.1847 18.3227 19.219 18.3258C19.2533 18.329 19.2858 18.3425 19.3122 18.3647C20.1478 18.8573 21.055 19.2167 22.0012 19.4299C22.8353 19.639 23.6908 19.7504 24.5507 19.7617C25.3653 19.7617 25.9648 19.6569 26.3491 19.4473C26.5226 19.3678 26.6693 19.2397 26.7716 19.0786C26.8739 18.9175 26.9273 18.7302 26.9254 18.5394C26.9254 18.237 26.7508 17.946 26.4016 17.6664C26.2552 17.5492 26.0452 17.4218 25.7718 17.2841L25.641 17.2198L25.5015 17.1541L25.4283 17.1208L25.275 17.0528L25.1951 17.0183L25.0283 16.9483L24.9415 16.9127L24.7613 16.8405L24.6678 16.8039L24.474 16.7293L24.2712 16.6534C23.1745 16.2721 22.1347 15.7434 21.1804 15.0819C20.4978 14.6072 19.9357 13.9793 19.5392 13.2485C19.1959 12.5603 19.0222 11.7999 19.0328 11.0309C19.0307 10.1068 19.2845 9.20026 19.7661 8.41167C20.3152 7.54335 21.1034 6.85194 22.0362 6.42123C23.0604 5.90932 24.3409 5.65316 25.8775 5.65276C26.7776 5.64552 27.6768 5.70978 28.5667 5.84493C29.2111 5.92674 29.841 6.09714 30.4388 6.35128C30.535 6.37894 30.6125 6.44991 30.6483 6.54345C30.672 6.62866 30.6836 6.71671 30.6832 6.80537V10.3326C30.6883 10.4159 30.6483 10.4959 30.5785 10.542C30.5318 10.5652 30.4804 10.5773 30.4282 10.5773C30.3761 10.5773 30.3246 10.5652 30.2779 10.542Z" fill="#6615EF"/>
</svg>
