<svg width="42" height="36" viewBox="0 0 42 36" fill="none" xmlns="http://www.w3.org/2000/svg">
<path d="M21.0013 21.5958C22.9868 21.5958 24.5963 19.9863 24.5963 18.0008C24.5963 16.0153 22.9868 14.4058 21.0013 14.4058C19.0158 14.4058 17.4062 16.0153 17.4062 18.0008C17.4062 19.9863 19.0158 21.5958 21.0013 21.5958Z" fill="#6615EF"/>
<path d="M10.9349 25.1488L10.1393 24.9454C4.23018 23.453 0.840576 20.9154 0.840576 17.993C0.840576 15.0706 4.2322 12.533 10.1393 11.0406L10.9349 10.8392L11.1584 11.6267C11.7556 13.6884 12.5208 15.6978 13.4464 17.6345L13.6176 17.993L13.4464 18.3515C12.5199 20.291 11.7526 22.301 11.1584 24.3634L10.9349 25.1488ZM9.77279 12.8733C5.28352 14.1381 2.52632 16.0676 2.52632 17.993C2.52632 19.9144 5.28151 21.8458 9.77279 23.1086C10.3233 21.3578 10.9846 19.6526 11.7566 17.993C10.9797 16.3336 10.3168 14.623 9.77279 12.8733ZM31.0651 25.1488L30.8435 24.3593C30.245 22.2971 29.4791 20.2871 28.5536 18.3495L28.3824 17.993L28.5536 17.6325C29.48 15.697 30.2434 13.685 30.8435 11.6226L31.0651 10.8372L31.8606 11.0386C37.7718 12.531 41.1594 15.0666 41.1594 17.993C41.1594 20.9194 37.7698 23.453 31.8606 24.9454L31.0651 25.1488ZM30.2393 17.993C31.0449 19.7371 31.7156 21.4531 32.2272 23.1086C36.7185 21.8458 39.4757 19.9144 39.4757 17.993C39.4757 16.0676 36.7205 14.1402 32.2272 12.8733C31.6762 14.6212 31.0122 16.3313 30.2393 17.993Z" fill="#6615EF"/>
<path d="M9.76086 12.8654L9.53932 12.0799C7.87573 6.22313 8.37924 2.02791 10.923 0.565722C13.4103 -0.874307 17.4121 0.827546 21.6033 5.1275L22.1753 5.71559L21.6033 6.30167C20.1166 7.85146 18.7561 9.51768 17.535 11.2844L17.3074 11.6106L16.9127 11.6429C14.7693 11.8143 12.6431 12.1571 10.5544 12.668L9.76086 12.8654ZM12.9471 1.72983C12.4946 1.72983 12.0991 1.82718 11.7608 2.02186C10.0932 2.98256 9.79913 6.32786 10.9471 10.8433C12.7423 10.4445 14.5522 10.1646 16.3769 10.0035C17.4331 8.50493 18.5855 7.07666 19.827 5.72768C17.2027 3.1759 14.7254 1.72983 12.9471 1.72983ZM29.0532 35.9361C26.6606 35.9361 23.5872 34.1315 20.3969 30.8567L19.827 30.2706L20.3969 29.6865C21.8847 28.1349 23.2458 26.4667 24.4673 24.6978L24.6929 24.3756L25.0836 24.3373C27.2281 24.1717 29.3553 23.8301 31.4439 23.3162L32.2394 23.1148L32.463 23.9023C34.1185 29.755 33.617 33.9563 31.0773 35.4185C30.4599 35.766 29.7617 35.9446 29.0532 35.9361ZM22.1753 30.2565C24.7976 32.8083 27.2769 34.2564 29.0532 34.2564C29.5084 34.255 29.9038 34.1577 30.2395 33.9643C31.9091 33.0016 32.2052 29.6503 31.0532 25.1348C29.2607 25.5363 27.4494 25.8176 25.6193 25.9787C24.5675 27.4795 23.417 28.9086 22.1753 30.2565Z" fill="#6615EF"/>
<path d="M32.2391 12.8653L31.4436 12.6659C29.3552 12.1506 27.2279 11.8077 25.0833 11.6408L24.6926 11.6065L24.467 11.2802C23.2481 9.51136 21.8868 7.84492 20.3967 6.29754L19.8267 5.71146L20.3967 5.12739C24.5858 0.829454 28.5857 -0.872399 31.0771 0.565617C33.6188 2.02981 34.1243 6.22503 32.4627 12.0798L32.2391 12.8653ZM25.619 10.0034C27.5404 10.1745 29.3611 10.4625 31.0529 10.8432C32.2029 6.32775 31.9088 2.98245 30.2392 2.01974C28.5797 1.05905 25.4559 2.52929 22.1751 5.72757C23.4184 7.07697 24.5664 8.50223 25.619 10.0034ZM12.9468 35.936C12.2383 35.9445 11.5401 35.7659 10.9227 35.4184C8.37897 33.9562 7.87546 29.7569 9.53703 23.9022L9.75455 23.1147L10.5501 23.3161C12.4916 23.8055 14.6305 24.1499 16.9104 24.3372L17.3011 24.3755L17.5287 24.6977C18.7452 26.466 20.1066 28.1356 21.597 29.6864L22.169 30.2705L21.597 30.8566C18.4088 34.1334 15.3354 35.936 12.9468 35.936ZM10.9469 25.1368C9.79885 29.6522 10.0929 33.0035 11.7605 33.9663C13.4221 34.9128 16.5358 33.4527 19.8267 30.2564C18.5852 28.9074 17.4328 27.4792 16.3767 25.9806C14.5504 25.8173 12.7366 25.5354 10.9469 25.1368Z" fill="#6615EF"/>
<path d="M21.0007 26.1941C19.6171 26.1941 18.1972 26.1357 16.7713 26.0169L16.3765 25.9826L16.1489 25.6564C15.3454 24.4997 14.5889 23.3112 13.8811 22.0935C13.1792 20.8723 12.5268 19.6233 11.9255 18.3495L11.7563 17.993L11.9255 17.6325C12.527 16.3596 13.1789 15.1123 13.8811 13.8904C14.58 12.6901 15.3433 11.4897 16.1489 10.3256L16.3765 10.0033L16.7713 9.96709C19.5846 9.73005 22.4129 9.73005 25.2262 9.96709L25.6169 10.0054L25.8445 10.3276C27.4564 12.6405 28.8712 15.0847 30.0739 17.6345L30.2411 17.995L30.0739 18.3515C28.8712 20.9012 27.4564 23.3454 25.8445 25.6584L25.6169 25.9846L25.2262 26.0189C23.8043 26.1337 22.3824 26.1941 21.0007 26.1941ZM17.307 24.3734C19.7943 24.5607 22.2071 24.5607 24.6924 24.3734C26.0797 22.3416 27.313 20.2088 28.3821 17.993C27.3164 15.7754 26.0829 13.6424 24.6924 11.6125C22.2342 11.4242 19.7652 11.4242 17.307 11.6125C15.9165 13.6424 14.683 15.7754 13.6173 17.993C14.6897 20.2071 15.9229 22.3396 17.307 24.3734Z" fill="#6615EF"/>
</svg>
