<svg width="532" height="92" viewBox="0 0 532 92" fill="none" xmlns="http://www.w3.org/2000/svg">
<mask id="path-1-outside-1_401_40" maskUnits="userSpaceOnUse" x="65.0996" y="0" width="467" height="92" fill="black">
<rect fill="white" x="65.0996" width="467" height="92"/>
<path d="M166.224 68.5509V60.9679C164.049 63.429 161.533 65.3913 158.678 66.8547C155.823 68.3181 152.798 69.0498 149.604 69.0498C146.069 69.0498 142.738 68.4179 139.611 67.154C136.552 65.8902 133.833 64.0942 131.454 61.7661C129.075 59.5045 127.205 56.8438 125.846 53.784C124.554 50.6576 123.908 47.3983 123.908 44.0059C123.908 40.6135 124.554 37.3874 125.846 34.3276C127.205 31.2012 129.075 28.474 131.454 26.1459C133.833 23.8178 136.552 22.0218 139.611 20.758C142.738 19.4941 146.069 18.8622 149.604 18.8622C152.866 18.8622 155.925 19.5274 158.78 20.8577C161.703 22.1881 164.185 24.0506 166.224 26.4452V19.86H175.401V68.5509H166.224ZM149.604 27.7423C147.36 27.7423 145.185 28.1747 143.078 29.0394C141.038 29.8376 139.271 30.9684 137.776 32.4318C136.28 33.8952 135.09 35.6579 134.207 37.72C133.391 39.7155 132.983 41.8108 132.983 44.0059C132.983 46.201 133.391 48.2963 134.207 50.2918C135.09 52.2873 136.28 54.0168 137.776 55.4802C139.271 56.9436 141.038 58.1076 143.078 58.9723C145.185 59.7706 147.36 60.1697 149.604 60.1697C151.847 60.1697 153.988 59.7706 156.027 58.9723C158.067 58.1076 159.834 56.9436 161.33 55.4802C162.825 54.0168 163.981 52.2873 164.796 50.2918C165.68 48.2963 166.122 46.201 166.122 44.0059C166.122 41.8108 165.68 39.7155 164.796 37.72C163.981 35.6579 162.825 33.8952 161.33 32.4318C159.834 30.9684 158.067 29.8376 156.027 29.0394C153.988 28.1747 151.847 27.7423 149.604 27.7423Z"/>
<path d="M207.689 28.2412C206.057 27.5095 204.596 27.1437 203.304 27.1437C200.585 27.1437 198.342 28.0749 196.575 29.9374C194.671 31.9329 193.72 34.2278 193.72 36.822V68.5509H184.951V36.822C184.951 33.23 185.868 29.9374 187.704 26.9441C189.607 23.9508 192.19 21.6227 195.453 19.9598C197.9 18.829 200.517 18.2636 203.304 18.2636C205.548 18.2636 207.689 18.6627 209.728 19.4609C211.767 20.2591 213.909 21.5562 216.152 23.3522L207.689 28.2412Z"/>
<path d="M222.768 68.5509V2.19956H230.925V68.5509H222.768Z"/>
<path d="M264.943 69.0498C261.476 69.0498 258.179 68.4179 255.052 67.154C251.993 65.8237 249.274 63.9944 246.895 61.6663C244.583 59.4047 242.748 56.744 241.389 53.6842C240.097 50.5579 239.451 47.2985 239.451 43.9061C239.451 40.5137 240.097 37.2876 241.389 34.2278C242.748 31.1015 244.583 28.4075 246.895 26.1459C249.274 23.8178 251.993 22.0218 255.052 20.758C258.179 19.4276 261.476 18.7624 264.943 18.7624C272.964 18.7624 279.761 22.0883 285.336 28.7401L277.382 33.23C273.847 29.5716 269.701 27.7423 264.943 27.7423C262.699 27.7423 260.558 28.1747 258.519 29.0394C256.547 29.8376 254.814 30.9684 253.318 32.4318C251.823 33.8952 250.633 35.6247 249.75 37.6202C248.866 39.6157 248.424 41.711 248.424 43.9061C248.424 46.1012 248.866 48.1965 249.75 50.192C250.633 52.1875 251.823 53.917 253.318 55.3804C254.814 56.8438 256.547 58.0078 258.519 58.8726C260.558 59.6708 262.699 60.0699 264.943 60.0699C269.701 60.0699 273.847 58.2407 277.382 54.5822L285.336 59.0721C279.761 65.7239 272.964 69.0498 264.943 69.0498Z"/>
<path d="M298.612 11.4788C297.32 11.4788 296.199 11.0464 295.247 10.1817C294.363 9.25042 293.921 8.15288 293.921 6.88905C293.921 5.62521 294.363 4.56093 295.247 3.6962C296.199 2.76495 297.32 2.29933 298.612 2.29933C299.903 2.29933 300.991 2.76495 301.875 3.6962C302.826 4.56093 303.302 5.62521 303.302 6.88905C303.302 8.15288 302.826 9.25042 301.875 10.1817C300.991 11.0464 299.903 11.4788 298.612 11.4788ZM294.431 68.5509V18.6627H302.996V68.5509H294.431Z"/>
<path d="M328.214 27.6425V68.5509H319.547V27.6425H311.899V18.6627H319.547V2.19956H328.214V18.6627H352.552V27.6425H328.214Z"/>
<path d="M365.57 89.8033V80.8234C369.173 80.8234 372.3 79.5263 374.951 76.9321C376.174 75.7348 377.092 74.3379 377.704 72.7415C378.383 71.1451 378.795 70.9864 379.169 68.052V64.3629C377.606 65.9593 375.189 67.0542 372.809 68.052C370.43 68.9832 368.017 69.4489 365.57 69.4489C362.579 69.4489 359.758 68.9167 357.107 67.8524C354.456 66.7216 352.11 65.1585 350.071 63.163C347.964 61.1674 346.332 58.8726 345.177 56.2784C344.021 53.6177 343.443 50.8239 343.443 47.8972V42.7228H352.416V47.2985C352.416 49.6266 352.994 51.8217 354.15 53.8837C355.373 55.8793 356.971 57.4757 358.942 58.673C360.981 59.8703 363.191 60.469 365.57 60.469C367.949 60.469 370.158 59.9036 372.198 58.7728C374.237 57.5755 375.834 55.9791 376.99 53.9835C377.617 53.3283 379.169 49.6931 379.169 47.2985L379.615 18.6627H387.696V67.6529C387.696 70.6462 387.119 73.5064 385.963 76.2337C384.875 78.9609 383.312 81.3223 381.272 83.3178C379.165 85.3798 376.752 86.9763 374.033 88.1071C371.382 89.2379 368.561 89.8033 365.57 89.8033Z"/>
<path d="M410.676 68.5509V37.9195C410.676 34.7932 409.555 32.1325 407.312 29.9374C406.292 28.9396 405.068 28.1414 403.641 27.5428C402.281 26.9441 400.888 26.6448 399.46 26.6448C396.401 26.6448 393.75 27.7423 391.507 29.9374C389.264 32.1325 388.142 34.7932 388.142 37.9195L387.679 68.5509H379.169V2H388.142V22.1548C391.405 19.1615 395.178 17.6649 399.46 17.6649C402.179 17.6649 404.762 18.197 407.21 19.2613C409.657 20.2591 411.832 21.6892 413.735 23.5517C415.571 25.4142 416.998 27.6093 418.018 30.137C419.106 32.5981 419.649 35.1923 419.649 37.9195V68.5509H410.676Z"/>
<path d="M459.824 68.2515V64.0609C458.464 65.4578 456.731 66.6219 454.624 67.5531C452.584 68.4844 450.545 68.95 448.506 68.95C445.787 68.95 443.169 68.4511 440.654 67.4533C438.207 66.3891 436.032 64.9257 434.129 63.0632C432.293 61.2007 430.832 59.0721 429.744 56.6775C428.724 54.2163 428.215 51.6221 428.215 48.8949V18.6627H437.187V48.8949C437.187 51.9547 438.309 54.5822 440.552 56.7773C442.796 58.9723 445.447 60.0699 448.506 60.0699C449.933 60.0699 451.361 59.7706 452.788 59.1719C454.216 58.5732 455.439 57.775 456.459 56.7773C458.702 54.5822 459.824 51.9547 459.824 48.8949V18.6627H468.695V68.2515H459.824Z"/>
<path d="M504.203 69.0498C501.008 69.0498 497.915 68.3181 494.924 66.8547C492.001 65.3913 489.452 63.3958 487.277 60.8681V68.5509H478.304V2.29933H487.277V25.8466C488.772 23.7845 490.981 21.9553 493.904 20.3589C496.895 18.7624 500.328 17.9642 504.203 17.9642C507.67 17.9642 511 18.6294 514.195 19.9598C517.39 21.2901 520.143 23.1193 522.455 25.4475C524.834 27.8421 526.669 30.6026 527.961 33.7289C529.32 36.7887 530 40.0481 530 43.507C530 46.9659 529.32 50.2585 527.961 53.3849C526.669 56.4447 524.834 59.1719 522.455 61.5665C520.143 63.8947 517.39 65.7239 514.195 67.0542C511 68.3846 507.67 69.0498 504.203 69.0498ZM504.203 27.0439C501.96 27.0439 499.784 27.4763 497.677 28.341C495.638 29.1392 493.87 30.3032 492.375 31.8332C490.879 33.3631 489.69 35.159 488.806 37.2211C487.922 39.2166 487.48 41.3119 487.48 43.507C487.48 47.9637 489.112 51.855 492.375 55.1808C493.87 56.7107 495.638 57.9081 497.677 58.7728C499.784 59.6375 501.96 60.0699 504.203 60.0699C506.446 60.0699 508.587 59.6375 510.627 58.7728C512.666 57.9081 514.433 56.7107 515.929 55.1808C519.192 51.855 520.823 47.9637 520.823 43.507C520.823 41.3119 520.381 39.2166 519.498 37.2211C518.614 35.159 517.424 33.3631 515.929 31.8332C514.433 30.3032 512.666 29.1392 510.627 28.341C508.587 27.4763 506.446 27.0439 504.203 27.0439Z"/>
<path d="M92.8446 69.194C87.9896 69.194 83.6133 68.0999 79.7157 65.9117C75.818 63.6552 72.7409 60.6123 70.4844 56.783C68.2279 52.9538 67.0996 48.6117 67.0996 43.7567C67.0996 38.9701 68.1937 34.6622 70.3818 30.8329C72.6384 27.0037 75.6471 23.995 79.408 21.8068C83.2372 19.5503 87.511 18.422 92.2292 18.422C96.7422 18.422 100.708 19.4477 104.127 21.4991C107.615 23.5505 110.316 26.3882 112.23 30.0124C114.213 33.6365 115.205 37.7393 115.205 42.3207C115.205 43.0045 115.171 43.7567 115.102 44.5773C115.034 45.3294 114.897 46.2184 114.692 47.2441H73.5615V39.5513H109.769L106.384 42.5259C106.384 39.2436 105.803 36.4743 104.64 34.2177C103.478 31.8928 101.837 30.1149 99.7168 28.8841C97.597 27.5849 95.0327 26.9353 92.024 26.9353C88.8786 26.9353 86.1092 27.6191 83.7159 28.9867C81.3226 30.3543 79.4763 32.2689 78.1771 34.7306C76.8779 37.1922 76.2283 40.0984 76.2283 43.449C76.2283 46.868 76.9121 49.8767 78.2797 52.4751C79.6473 55.0052 81.5961 56.9882 84.1262 58.4242C86.6562 59.7918 89.5624 60.4755 92.8446 60.4755C95.5798 60.4755 98.0756 59.9969 100.332 59.0396C102.657 58.0823 104.64 56.6463 106.281 54.7317L112.23 60.7833C109.905 63.5184 107.033 65.604 103.614 67.04C100.264 68.476 96.6739 69.194 92.8446 69.194Z"/>
</mask>
<path d="M166.224 68.5509V60.9679C164.049 63.429 161.533 65.3913 158.678 66.8547C155.823 68.3181 152.798 69.0498 149.604 69.0498C146.069 69.0498 142.738 68.4179 139.611 67.154C136.552 65.8902 133.833 64.0942 131.454 61.7661C129.075 59.5045 127.205 56.8438 125.846 53.784C124.554 50.6576 123.908 47.3983 123.908 44.0059C123.908 40.6135 124.554 37.3874 125.846 34.3276C127.205 31.2012 129.075 28.474 131.454 26.1459C133.833 23.8178 136.552 22.0218 139.611 20.758C142.738 19.4941 146.069 18.8622 149.604 18.8622C152.866 18.8622 155.925 19.5274 158.78 20.8577C161.703 22.1881 164.185 24.0506 166.224 26.4452V19.86H175.401V68.5509H166.224ZM149.604 27.7423C147.36 27.7423 145.185 28.1747 143.078 29.0394C141.038 29.8376 139.271 30.9684 137.776 32.4318C136.28 33.8952 135.09 35.6579 134.207 37.72C133.391 39.7155 132.983 41.8108 132.983 44.0059C132.983 46.201 133.391 48.2963 134.207 50.2918C135.09 52.2873 136.28 54.0168 137.776 55.4802C139.271 56.9436 141.038 58.1076 143.078 58.9723C145.185 59.7706 147.36 60.1697 149.604 60.1697C151.847 60.1697 153.988 59.7706 156.027 58.9723C158.067 58.1076 159.834 56.9436 161.33 55.4802C162.825 54.0168 163.981 52.2873 164.796 50.2918C165.68 48.2963 166.122 46.201 166.122 44.0059C166.122 41.8108 165.68 39.7155 164.796 37.72C163.981 35.6579 162.825 33.8952 161.33 32.4318C159.834 30.9684 158.067 29.8376 156.027 29.0394C153.988 28.1747 151.847 27.7423 149.604 27.7423Z" fill="#130032"/>
<path d="M207.689 28.2412C206.057 27.5095 204.596 27.1437 203.304 27.1437C200.585 27.1437 198.342 28.0749 196.575 29.9374C194.671 31.9329 193.72 34.2278 193.72 36.822V68.5509H184.951V36.822C184.951 33.23 185.868 29.9374 187.704 26.9441C189.607 23.9508 192.19 21.6227 195.453 19.9598C197.9 18.829 200.517 18.2636 203.304 18.2636C205.548 18.2636 207.689 18.6627 209.728 19.4609C211.767 20.2591 213.909 21.5562 216.152 23.3522L207.689 28.2412Z" fill="#130032"/>
<path d="M222.768 68.5509V2.19956H230.925V68.5509H222.768Z" fill="#130032"/>
<path d="M264.943 69.0498C261.476 69.0498 258.179 68.4179 255.052 67.154C251.993 65.8237 249.274 63.9944 246.895 61.6663C244.583 59.4047 242.748 56.744 241.389 53.6842C240.097 50.5579 239.451 47.2985 239.451 43.9061C239.451 40.5137 240.097 37.2876 241.389 34.2278C242.748 31.1015 244.583 28.4075 246.895 26.1459C249.274 23.8178 251.993 22.0218 255.052 20.758C258.179 19.4276 261.476 18.7624 264.943 18.7624C272.964 18.7624 279.761 22.0883 285.336 28.7401L277.382 33.23C273.847 29.5716 269.701 27.7423 264.943 27.7423C262.699 27.7423 260.558 28.1747 258.519 29.0394C256.547 29.8376 254.814 30.9684 253.318 32.4318C251.823 33.8952 250.633 35.6247 249.75 37.6202C248.866 39.6157 248.424 41.711 248.424 43.9061C248.424 46.1012 248.866 48.1965 249.75 50.192C250.633 52.1875 251.823 53.917 253.318 55.3804C254.814 56.8438 256.547 58.0078 258.519 58.8726C260.558 59.6708 262.699 60.0699 264.943 60.0699C269.701 60.0699 273.847 58.2407 277.382 54.5822L285.336 59.0721C279.761 65.7239 272.964 69.0498 264.943 69.0498Z" fill="#130032"/>
<path d="M298.612 11.4788C297.32 11.4788 296.199 11.0464 295.247 10.1817C294.363 9.25042 293.921 8.15288 293.921 6.88905C293.921 5.62521 294.363 4.56093 295.247 3.6962C296.199 2.76495 297.32 2.29933 298.612 2.29933C299.903 2.29933 300.991 2.76495 301.875 3.6962C302.826 4.56093 303.302 5.62521 303.302 6.88905C303.302 8.15288 302.826 9.25042 301.875 10.1817C300.991 11.0464 299.903 11.4788 298.612 11.4788ZM294.431 68.5509V18.6627H302.996V68.5509H294.431Z" fill="#130032"/>
<path d="M328.214 27.6425V68.5509H319.547V27.6425H311.899V18.6627H319.547V2.19956H328.214V18.6627H352.552V27.6425H328.214Z" fill="#130032"/>
<path d="M365.57 89.8033V80.8234C369.173 80.8234 372.3 79.5263 374.951 76.9321C376.174 75.7348 377.092 74.3379 377.704 72.7415C378.383 71.1451 378.795 70.9864 379.169 68.052V64.3629C377.606 65.9593 375.189 67.0542 372.809 68.052C370.43 68.9832 368.017 69.4489 365.57 69.4489C362.579 69.4489 359.758 68.9167 357.107 67.8524C354.456 66.7216 352.11 65.1585 350.071 63.163C347.964 61.1674 346.332 58.8726 345.177 56.2784C344.021 53.6177 343.443 50.8239 343.443 47.8972V42.7228H352.416V47.2985C352.416 49.6266 352.994 51.8217 354.15 53.8837C355.373 55.8793 356.971 57.4757 358.942 58.673C360.981 59.8703 363.191 60.469 365.57 60.469C367.949 60.469 370.158 59.9036 372.198 58.7728C374.237 57.5755 375.834 55.9791 376.99 53.9835C377.617 53.3283 379.169 49.6931 379.169 47.2985L379.615 18.6627H387.696V67.6529C387.696 70.6462 387.119 73.5064 385.963 76.2337C384.875 78.9609 383.312 81.3223 381.272 83.3178C379.165 85.3798 376.752 86.9763 374.033 88.1071C371.382 89.2379 368.561 89.8033 365.57 89.8033Z" fill="#130032"/>
<path d="M410.676 68.5509V37.9195C410.676 34.7932 409.555 32.1325 407.312 29.9374C406.292 28.9396 405.068 28.1414 403.641 27.5428C402.281 26.9441 400.888 26.6448 399.46 26.6448C396.401 26.6448 393.75 27.7423 391.507 29.9374C389.264 32.1325 388.142 34.7932 388.142 37.9195L387.679 68.5509H379.169V2H388.142V22.1548C391.405 19.1615 395.178 17.6649 399.46 17.6649C402.179 17.6649 404.762 18.197 407.21 19.2613C409.657 20.2591 411.832 21.6892 413.735 23.5517C415.571 25.4142 416.998 27.6093 418.018 30.137C419.106 32.5981 419.649 35.1923 419.649 37.9195V68.5509H410.676Z" fill="#130032"/>
<path d="M459.824 68.2515V64.0609C458.464 65.4578 456.731 66.6219 454.624 67.5531C452.584 68.4844 450.545 68.95 448.506 68.95C445.787 68.95 443.169 68.4511 440.654 67.4533C438.207 66.3891 436.032 64.9257 434.129 63.0632C432.293 61.2007 430.832 59.0721 429.744 56.6775C428.724 54.2163 428.215 51.6221 428.215 48.8949V18.6627H437.187V48.8949C437.187 51.9547 438.309 54.5822 440.552 56.7773C442.796 58.9723 445.447 60.0699 448.506 60.0699C449.933 60.0699 451.361 59.7706 452.788 59.1719C454.216 58.5732 455.439 57.775 456.459 56.7773C458.702 54.5822 459.824 51.9547 459.824 48.8949V18.6627H468.695V68.2515H459.824Z" fill="#130032"/>
<path d="M504.203 69.0498C501.008 69.0498 497.915 68.3181 494.924 66.8547C492.001 65.3913 489.452 63.3958 487.277 60.8681V68.5509H478.304V2.29933H487.277V25.8466C488.772 23.7845 490.981 21.9553 493.904 20.3589C496.895 18.7624 500.328 17.9642 504.203 17.9642C507.67 17.9642 511 18.6294 514.195 19.9598C517.39 21.2901 520.143 23.1193 522.455 25.4475C524.834 27.8421 526.669 30.6026 527.961 33.7289C529.32 36.7887 530 40.0481 530 43.507C530 46.9659 529.32 50.2585 527.961 53.3849C526.669 56.4447 524.834 59.1719 522.455 61.5665C520.143 63.8947 517.39 65.7239 514.195 67.0542C511 68.3846 507.67 69.0498 504.203 69.0498ZM504.203 27.0439C501.96 27.0439 499.784 27.4763 497.677 28.341C495.638 29.1392 493.87 30.3032 492.375 31.8332C490.879 33.3631 489.69 35.159 488.806 37.2211C487.922 39.2166 487.48 41.3119 487.48 43.507C487.48 47.9637 489.112 51.855 492.375 55.1808C493.87 56.7107 495.638 57.9081 497.677 58.7728C499.784 59.6375 501.96 60.0699 504.203 60.0699C506.446 60.0699 508.587 59.6375 510.627 58.7728C512.666 57.9081 514.433 56.7107 515.929 55.1808C519.192 51.855 520.823 47.9637 520.823 43.507C520.823 41.3119 520.381 39.2166 519.498 37.2211C518.614 35.159 517.424 33.3631 515.929 31.8332C514.433 30.3032 512.666 29.1392 510.627 28.341C508.587 27.4763 506.446 27.0439 504.203 27.0439Z" fill="#130032"/>
<path d="M92.8446 69.194C87.9896 69.194 83.6133 68.0999 79.7157 65.9117C75.818 63.6552 72.7409 60.6123 70.4844 56.783C68.2279 52.9538 67.0996 48.6117 67.0996 43.7567C67.0996 38.9701 68.1937 34.6622 70.3818 30.8329C72.6384 27.0037 75.6471 23.995 79.408 21.8068C83.2372 19.5503 87.511 18.422 92.2292 18.422C96.7422 18.422 100.708 19.4477 104.127 21.4991C107.615 23.5505 110.316 26.3882 112.23 30.0124C114.213 33.6365 115.205 37.7393 115.205 42.3207C115.205 43.0045 115.171 43.7567 115.102 44.5773C115.034 45.3294 114.897 46.2184 114.692 47.2441H73.5615V39.5513H109.769L106.384 42.5259C106.384 39.2436 105.803 36.4743 104.64 34.2177C103.478 31.8928 101.837 30.1149 99.7168 28.8841C97.597 27.5849 95.0327 26.9353 92.024 26.9353C88.8786 26.9353 86.1092 27.6191 83.7159 28.9867C81.3226 30.3543 79.4763 32.2689 78.1771 34.7306C76.8779 37.1922 76.2283 40.0984 76.2283 43.449C76.2283 46.868 76.9121 49.8767 78.2797 52.4751C79.6473 55.0052 81.5961 56.9882 84.1262 58.4242C86.6562 59.7918 89.5624 60.4755 92.8446 60.4755C95.5798 60.4755 98.0756 59.9969 100.332 59.0396C102.657 58.0823 104.64 56.6463 106.281 54.7317L112.23 60.7833C109.905 63.5184 107.033 65.604 103.614 67.04C100.264 68.476 96.6739 69.194 92.8446 69.194Z" fill="#130032"/>
<path d="M166.224 68.5509V60.9679C164.049 63.429 161.533 65.3913 158.678 66.8547C155.823 68.3181 152.798 69.0498 149.604 69.0498C146.069 69.0498 142.738 68.4179 139.611 67.154C136.552 65.8902 133.833 64.0942 131.454 61.7661C129.075 59.5045 127.205 56.8438 125.846 53.784C124.554 50.6576 123.908 47.3983 123.908 44.0059C123.908 40.6135 124.554 37.3874 125.846 34.3276C127.205 31.2012 129.075 28.474 131.454 26.1459C133.833 23.8178 136.552 22.0218 139.611 20.758C142.738 19.4941 146.069 18.8622 149.604 18.8622C152.866 18.8622 155.925 19.5274 158.78 20.8577C161.703 22.1881 164.185 24.0506 166.224 26.4452V19.86H175.401V68.5509H166.224ZM149.604 27.7423C147.36 27.7423 145.185 28.1747 143.078 29.0394C141.038 29.8376 139.271 30.9684 137.776 32.4318C136.28 33.8952 135.09 35.6579 134.207 37.72C133.391 39.7155 132.983 41.8108 132.983 44.0059C132.983 46.201 133.391 48.2963 134.207 50.2918C135.09 52.2873 136.28 54.0168 137.776 55.4802C139.271 56.9436 141.038 58.1076 143.078 58.9723C145.185 59.7706 147.36 60.1697 149.604 60.1697C151.847 60.1697 153.988 59.7706 156.027 58.9723C158.067 58.1076 159.834 56.9436 161.33 55.4802C162.825 54.0168 163.981 52.2873 164.796 50.2918C165.68 48.2963 166.122 46.201 166.122 44.0059C166.122 41.8108 165.68 39.7155 164.796 37.72C163.981 35.6579 162.825 33.8952 161.33 32.4318C159.834 30.9684 158.067 29.8376 156.027 29.0394C153.988 28.1747 151.847 27.7423 149.604 27.7423Z" stroke="#130032" stroke-width="4" mask="url(#path-1-outside-1_401_40)"/>
<path d="M207.689 28.2412C206.057 27.5095 204.596 27.1437 203.304 27.1437C200.585 27.1437 198.342 28.0749 196.575 29.9374C194.671 31.9329 193.72 34.2278 193.72 36.822V68.5509H184.951V36.822C184.951 33.23 185.868 29.9374 187.704 26.9441C189.607 23.9508 192.19 21.6227 195.453 19.9598C197.9 18.829 200.517 18.2636 203.304 18.2636C205.548 18.2636 207.689 18.6627 209.728 19.4609C211.767 20.2591 213.909 21.5562 216.152 23.3522L207.689 28.2412Z" stroke="#130032" stroke-width="4" mask="url(#path-1-outside-1_401_40)"/>
<path d="M222.768 68.5509V2.19956H230.925V68.5509H222.768Z" stroke="#130032" stroke-width="4" mask="url(#path-1-outside-1_401_40)"/>
<path d="M264.943 69.0498C261.476 69.0498 258.179 68.4179 255.052 67.154C251.993 65.8237 249.274 63.9944 246.895 61.6663C244.583 59.4047 242.748 56.744 241.389 53.6842C240.097 50.5579 239.451 47.2985 239.451 43.9061C239.451 40.5137 240.097 37.2876 241.389 34.2278C242.748 31.1015 244.583 28.4075 246.895 26.1459C249.274 23.8178 251.993 22.0218 255.052 20.758C258.179 19.4276 261.476 18.7624 264.943 18.7624C272.964 18.7624 279.761 22.0883 285.336 28.7401L277.382 33.23C273.847 29.5716 269.701 27.7423 264.943 27.7423C262.699 27.7423 260.558 28.1747 258.519 29.0394C256.547 29.8376 254.814 30.9684 253.318 32.4318C251.823 33.8952 250.633 35.6247 249.75 37.6202C248.866 39.6157 248.424 41.711 248.424 43.9061C248.424 46.1012 248.866 48.1965 249.75 50.192C250.633 52.1875 251.823 53.917 253.318 55.3804C254.814 56.8438 256.547 58.0078 258.519 58.8726C260.558 59.6708 262.699 60.0699 264.943 60.0699C269.701 60.0699 273.847 58.2407 277.382 54.5822L285.336 59.0721C279.761 65.7239 272.964 69.0498 264.943 69.0498Z" stroke="#130032" stroke-width="4" mask="url(#path-1-outside-1_401_40)"/>
<path d="M298.612 11.4788C297.32 11.4788 296.199 11.0464 295.247 10.1817C294.363 9.25042 293.921 8.15288 293.921 6.88905C293.921 5.62521 294.363 4.56093 295.247 3.6962C296.199 2.76495 297.32 2.29933 298.612 2.29933C299.903 2.29933 300.991 2.76495 301.875 3.6962C302.826 4.56093 303.302 5.62521 303.302 6.88905C303.302 8.15288 302.826 9.25042 301.875 10.1817C300.991 11.0464 299.903 11.4788 298.612 11.4788ZM294.431 68.5509V18.6627H302.996V68.5509H294.431Z" stroke="#130032" stroke-width="4" mask="url(#path-1-outside-1_401_40)"/>
<path d="M328.214 27.6425V68.5509H319.547V27.6425H311.899V18.6627H319.547V2.19956H328.214V18.6627H352.552V27.6425H328.214Z" stroke="#130032" stroke-width="4" mask="url(#path-1-outside-1_401_40)"/>
<path d="M365.57 89.8033V80.8234C369.173 80.8234 372.3 79.5263 374.951 76.9321C376.174 75.7348 377.092 74.3379 377.704 72.7415C378.383 71.1451 378.795 70.9864 379.169 68.052V64.3629C377.606 65.9593 375.189 67.0542 372.809 68.052C370.43 68.9832 368.017 69.4489 365.57 69.4489C362.579 69.4489 359.758 68.9167 357.107 67.8524C354.456 66.7216 352.11 65.1585 350.071 63.163C347.964 61.1674 346.332 58.8726 345.177 56.2784C344.021 53.6177 343.443 50.8239 343.443 47.8972V42.7228H352.416V47.2985C352.416 49.6266 352.994 51.8217 354.15 53.8837C355.373 55.8793 356.971 57.4757 358.942 58.673C360.981 59.8703 363.191 60.469 365.57 60.469C367.949 60.469 370.158 59.9036 372.198 58.7728C374.237 57.5755 375.834 55.9791 376.99 53.9835C377.617 53.3283 379.169 49.6931 379.169 47.2985L379.615 18.6627H387.696V67.6529C387.696 70.6462 387.119 73.5064 385.963 76.2337C384.875 78.9609 383.312 81.3223 381.272 83.3178C379.165 85.3798 376.752 86.9763 374.033 88.1071C371.382 89.2379 368.561 89.8033 365.57 89.8033Z" stroke="#130032" stroke-width="4" mask="url(#path-1-outside-1_401_40)"/>
<path d="M410.676 68.5509V37.9195C410.676 34.7932 409.555 32.1325 407.312 29.9374C406.292 28.9396 405.068 28.1414 403.641 27.5428C402.281 26.9441 400.888 26.6448 399.46 26.6448C396.401 26.6448 393.75 27.7423 391.507 29.9374C389.264 32.1325 388.142 34.7932 388.142 37.9195L387.679 68.5509H379.169V2H388.142V22.1548C391.405 19.1615 395.178 17.6649 399.46 17.6649C402.179 17.6649 404.762 18.197 407.21 19.2613C409.657 20.2591 411.832 21.6892 413.735 23.5517C415.571 25.4142 416.998 27.6093 418.018 30.137C419.106 32.5981 419.649 35.1923 419.649 37.9195V68.5509H410.676Z" stroke="#130032" stroke-width="4" mask="url(#path-1-outside-1_401_40)"/>
<path d="M459.824 68.2515V64.0609C458.464 65.4578 456.731 66.6219 454.624 67.5531C452.584 68.4844 450.545 68.95 448.506 68.95C445.787 68.95 443.169 68.4511 440.654 67.4533C438.207 66.3891 436.032 64.9257 434.129 63.0632C432.293 61.2007 430.832 59.0721 429.744 56.6775C428.724 54.2163 428.215 51.6221 428.215 48.8949V18.6627H437.187V48.8949C437.187 51.9547 438.309 54.5822 440.552 56.7773C442.796 58.9723 445.447 60.0699 448.506 60.0699C449.933 60.0699 451.361 59.7706 452.788 59.1719C454.216 58.5732 455.439 57.775 456.459 56.7773C458.702 54.5822 459.824 51.9547 459.824 48.8949V18.6627H468.695V68.2515H459.824Z" stroke="#130032" stroke-width="4" mask="url(#path-1-outside-1_401_40)"/>
<path d="M504.203 69.0498C501.008 69.0498 497.915 68.3181 494.924 66.8547C492.001 65.3913 489.452 63.3958 487.277 60.8681V68.5509H478.304V2.29933H487.277V25.8466C488.772 23.7845 490.981 21.9553 493.904 20.3589C496.895 18.7624 500.328 17.9642 504.203 17.9642C507.67 17.9642 511 18.6294 514.195 19.9598C517.39 21.2901 520.143 23.1193 522.455 25.4475C524.834 27.8421 526.669 30.6026 527.961 33.7289C529.32 36.7887 530 40.0481 530 43.507C530 46.9659 529.32 50.2585 527.961 53.3849C526.669 56.4447 524.834 59.1719 522.455 61.5665C520.143 63.8947 517.39 65.7239 514.195 67.0542C511 68.3846 507.67 69.0498 504.203 69.0498ZM504.203 27.0439C501.96 27.0439 499.784 27.4763 497.677 28.341C495.638 29.1392 493.87 30.3032 492.375 31.8332C490.879 33.3631 489.69 35.159 488.806 37.2211C487.922 39.2166 487.48 41.3119 487.48 43.507C487.48 47.9637 489.112 51.855 492.375 55.1808C493.87 56.7107 495.638 57.9081 497.677 58.7728C499.784 59.6375 501.96 60.0699 504.203 60.0699C506.446 60.0699 508.587 59.6375 510.627 58.7728C512.666 57.9081 514.433 56.7107 515.929 55.1808C519.192 51.855 520.823 47.9637 520.823 43.507C520.823 41.3119 520.381 39.2166 519.498 37.2211C518.614 35.159 517.424 33.3631 515.929 31.8332C514.433 30.3032 512.666 29.1392 510.627 28.341C508.587 27.4763 506.446 27.0439 504.203 27.0439Z" stroke="#130032" stroke-width="4" mask="url(#path-1-outside-1_401_40)"/>
<path d="M92.8446 69.194C87.9896 69.194 83.6133 68.0999 79.7157 65.9117C75.818 63.6552 72.7409 60.6123 70.4844 56.783C68.2279 52.9538 67.0996 48.6117 67.0996 43.7567C67.0996 38.9701 68.1937 34.6622 70.3818 30.8329C72.6384 27.0037 75.6471 23.995 79.408 21.8068C83.2372 19.5503 87.511 18.422 92.2292 18.422C96.7422 18.422 100.708 19.4477 104.127 21.4991C107.615 23.5505 110.316 26.3882 112.23 30.0124C114.213 33.6365 115.205 37.7393 115.205 42.3207C115.205 43.0045 115.171 43.7567 115.102 44.5773C115.034 45.3294 114.897 46.2184 114.692 47.2441H73.5615V39.5513H109.769L106.384 42.5259C106.384 39.2436 105.803 36.4743 104.64 34.2177C103.478 31.8928 101.837 30.1149 99.7168 28.8841C97.597 27.5849 95.0327 26.9353 92.024 26.9353C88.8786 26.9353 86.1092 27.6191 83.7159 28.9867C81.3226 30.3543 79.4763 32.2689 78.1771 34.7306C76.8779 37.1922 76.2283 40.0984 76.2283 43.449C76.2283 46.868 76.9121 49.8767 78.2797 52.4751C79.6473 55.0052 81.5961 56.9882 84.1262 58.4242C86.6562 59.7918 89.5624 60.4755 92.8446 60.4755C95.5798 60.4755 98.0756 59.9969 100.332 59.0396C102.657 58.0823 104.64 56.6463 106.281 54.7317L112.23 60.7833C109.905 63.5184 107.033 65.604 103.614 67.04C100.264 68.476 96.6739 69.194 92.8446 69.194Z" stroke="#130032" stroke-width="4" mask="url(#path-1-outside-1_401_40)"/>
<rect x="0.636719" y="50.8174" width="15.4638" height="35.0888" fill="#6615EF"/>
<rect x="0.636719" y="15.1953" width="15.4638" height="14.6386" fill="#6615EF"/>
<rect x="0.636719" y="22.5146" width="15.4638" height="13.6638" fill="#6615EF"/>
<path fill-rule="evenodd" clip-rule="evenodd" d="M40.2062 29.8339H55.6693V15.1953H40.2062V29.8339ZM25.8173 15.1953H16.0996V29.8339H25.8173V15.1953Z" fill="#21FFED"/>
<rect x="40.2051" y="44.4727" width="15.4638" height="12.6892" fill="#6615EF"/>
<rect x="16.0996" y="57.1621" width="39.5698" height="14.6386" fill="#6615EF"/>
<rect x="10.334" y="15.1953" width="15.4638" height="14.6386" fill="#6615EF"/>
</svg>
