<svg width="1592" height="1570" viewBox="0 0 1592 1570" fill="none" xmlns="http://www.w3.org/2000/svg">
<path d="M1302.54 511.697L1251.61 492.779C1251.61 480.166 1257.27 467.554 1257.27 454.941C1296.88 246.835 1268.58 76.5664 1183.7 19.8102C1098.82 -30.6398 963.009 19.8102 827.197 152.241C815.879 164.854 798.903 177.466 787.585 190.079C776.268 183.773 770.609 171.16 759.291 164.854C623.48 26.1164 482.009 -30.6397 397.127 26.1165C312.245 76.5664 289.61 240.529 323.563 436.022C329.221 454.941 329.221 473.86 334.88 492.779C312.245 499.085 295.269 505.391 278.292 511.697C108.528 574.76 1.01025 681.966 1.01025 782.866C1.01025 890.072 114.187 1003.58 289.61 1066.65C300.927 1072.95 317.904 1079.26 334.88 1079.26C329.221 1098.18 323.563 1123.4 323.563 1142.32C289.61 1337.82 317.904 1489.17 397.127 1545.92C482.009 1602.68 623.48 1545.92 764.95 1407.18C776.268 1394.57 787.585 1381.96 798.903 1375.65C810.221 1388.27 827.197 1407.18 844.173 1419.8C979.985 1552.23 1110.14 1602.68 1195.02 1545.92C1279.9 1489.17 1308.2 1325.2 1274.24 1123.4C1274.24 1110.79 1268.58 1091.87 1262.93 1072.95C1274.24 1066.65 1285.56 1066.65 1291.22 1060.34C1472.3 990.972 1591.14 883.766 1591.14 776.56C1585.48 681.966 1472.3 581.066 1302.54 511.697ZM878.126 215.304C996.961 101.791 1104.48 57.6477 1155.41 89.1789C1206.34 120.71 1228.97 259.448 1195.02 442.329C1195.02 454.941 1189.36 467.554 1189.36 480.166C1121.46 461.247 1047.89 448.635 979.985 442.329C940.373 379.266 895.103 316.204 844.173 253.141L878.126 215.304ZM470.692 877.46C487.668 908.991 498.986 940.522 515.962 972.053C532.939 1003.58 549.915 1035.12 566.892 1060.34C515.962 1054.03 470.692 1047.73 419.762 1035.12C431.08 984.666 448.056 934.216 470.692 877.46ZM470.692 700.885C448.056 650.435 436.739 599.985 419.762 549.535C465.033 536.922 515.962 530.616 561.233 524.31C544.256 555.841 527.28 581.066 510.303 612.597C498.986 637.822 482.009 669.354 470.692 700.885ZM504.645 789.172C527.28 738.722 549.915 694.579 572.55 644.129C595.186 599.985 623.48 549.535 651.774 505.391C697.044 499.085 747.974 499.085 798.903 499.085C849.832 499.085 895.103 499.085 946.032 505.391C974.326 549.535 996.961 593.679 1019.6 644.129C1042.23 688.272 1064.87 738.722 1087.5 789.172C1064.87 839.622 1042.23 883.766 1019.6 934.216C996.961 978.36 968.667 1028.81 946.032 1072.95C900.762 1079.26 849.832 1079.26 798.903 1079.26C747.974 1079.26 702.703 1079.26 657.433 1072.95C629.139 1028.81 606.503 984.666 578.209 934.216C549.915 883.766 527.28 839.622 504.645 789.172ZM1070.53 972.053C1087.5 940.522 1104.48 908.991 1115.8 877.46C1138.43 927.91 1155.41 978.36 1166.73 1035.12C1115.8 1047.73 1070.53 1054.03 1019.6 1060.34C1042.23 1028.81 1059.21 997.278 1070.53 972.053ZM1115.8 700.885C1098.82 669.354 1087.5 637.822 1070.53 606.291C1053.55 574.76 1036.57 549.535 1025.26 518.004C1076.18 524.31 1121.46 536.922 1172.38 543.229C1155.41 599.985 1138.43 650.435 1115.8 700.885ZM793.244 303.591C827.197 341.429 855.491 385.573 883.785 429.716C821.538 423.41 759.291 423.41 697.044 429.716C730.997 385.573 764.95 341.429 793.244 303.591ZM431.08 89.1789C482.009 57.6477 600.844 101.791 725.338 227.916L747.974 253.141C697.044 309.898 651.774 372.96 612.162 442.329C538.598 448.635 470.692 461.247 402.786 480.166C397.127 461.247 397.127 442.329 391.468 423.41C357.515 253.141 380.151 120.71 431.08 89.1789ZM351.857 1016.2C340.539 1009.89 323.563 1009.89 312.245 1003.58C233.022 972.053 170.775 934.216 125.504 896.379C85.8924 858.541 68.916 820.704 68.916 789.172C68.916 726.11 153.798 644.129 300.927 587.372C317.904 581.066 334.88 574.76 357.515 568.454C374.492 644.129 397.127 719.804 431.08 789.172C397.127 864.847 374.492 940.522 351.857 1016.2ZM719.68 1363.04C657.433 1426.1 595.186 1463.94 544.256 1489.17C493.327 1508.08 459.374 1508.08 431.08 1495.47C380.151 1463.94 357.515 1337.82 385.81 1173.85C391.468 1148.63 397.127 1129.71 397.127 1104.48C465.033 1123.4 538.598 1136.02 612.162 1136.02C651.774 1199.08 697.044 1262.14 747.974 1325.2C736.656 1337.82 730.997 1350.43 719.68 1363.04ZM793.244 1274.75C759.291 1236.92 730.997 1192.77 697.044 1148.63H883.785C861.15 1192.77 827.197 1236.92 793.244 1274.75ZM1206.34 1381.96C1195.02 1438.72 1178.04 1476.55 1155.41 1489.17C1104.48 1520.7 996.961 1476.55 883.785 1369.35C872.467 1356.73 855.491 1344.12 844.173 1331.51C889.444 1274.75 934.714 1211.69 974.326 1142.32C1047.89 1136.02 1115.8 1123.4 1189.36 1104.48C1195.02 1117.1 1195.02 1136.02 1200.68 1148.63C1217.66 1236.92 1217.66 1318.9 1206.34 1381.96ZM1262.93 1003.58C1251.61 1003.58 1245.95 1009.89 1234.63 1009.89C1212 934.216 1183.7 858.541 1155.41 782.866C1183.7 713.497 1212 637.822 1234.63 562.147C1251.61 568.454 1268.58 574.76 1279.9 581.066C1427.03 637.822 1517.57 719.804 1517.57 782.866C1517.57 858.541 1421.37 946.828 1262.93 1003.58Z" stroke="url(#paint0_linear_353_17)"/>
<defs>
<linearGradient id="paint0_linear_353_17" x1="378.786" y1="141.273" x2="1061.73" y2="1222.33" gradientUnits="userSpaceOnUse">
<stop stop-color="#21FFED"/>
<stop offset="1" stop-color="#6615EF"/>
</linearGradient>
</defs>
</svg>
